%TF.GenerationSoftware,KiCad,Pcbnew,7.0.11+dfsg-1build4*%
%TF.CreationDate,2024-08-26T19:24:48+02:00*%
%TF.ProjectId,BC01,42433031-2e6b-4696-9361-645f70636258,rev?*%
%TF.SameCoordinates,Original*%
%TF.FileFunction,Copper,L2,Bot*%
%TF.FilePolarity,Positive*%
%FSLAX46Y46*%
G04 Gerber Fmt 4.6, Leading zero omitted, Abs format (unit mm)*
G04 Created by KiCad (PCBNEW 7.0.11+dfsg-1build4) date 2024-08-26 19:24:48*
%MOMM*%
%LPD*%
G01*
G04 APERTURE LIST*
G04 Aperture macros list*
%AMRoundRect*
0 Rectangle with rounded corners*
0 $1 Rounding radius*
0 $2 $3 $4 $5 $6 $7 $8 $9 X,Y pos of 4 corners*
0 Add a 4 corners polygon primitive as box body*
4,1,4,$2,$3,$4,$5,$6,$7,$8,$9,$2,$3,0*
0 Add four circle primitives for the rounded corners*
1,1,$1+$1,$2,$3*
1,1,$1+$1,$4,$5*
1,1,$1+$1,$6,$7*
1,1,$1+$1,$8,$9*
0 Add four rect primitives between the rounded corners*
20,1,$1+$1,$2,$3,$4,$5,0*
20,1,$1+$1,$4,$5,$6,$7,0*
20,1,$1+$1,$6,$7,$8,$9,0*
20,1,$1+$1,$8,$9,$2,$3,0*%
G04 Aperture macros list end*
%TA.AperFunction,SMDPad,CuDef*%
%ADD10RoundRect,0.500000X-6.000000X-0.500000X6.000000X-0.500000X6.000000X0.500000X-6.000000X0.500000X0*%
%TD*%
%TA.AperFunction,ComponentPad*%
%ADD11O,1.700000X1.700000*%
%TD*%
%TA.AperFunction,ComponentPad*%
%ADD12R,1.700000X1.700000*%
%TD*%
%TA.AperFunction,ViaPad*%
%ADD13C,0.600000*%
%TD*%
%TA.AperFunction,Conductor*%
%ADD14C,0.600000*%
%TD*%
G04 APERTURE END LIST*
D10*
%TO.P,J1,40,Pin_40*%
%TO.N,GND*%
X127772900Y-113030000D03*
%TO.P,J1,38,Pin_38*%
%TO.N,unconnected-(J1-Pin_38-Pad38)*%
X127772900Y-110490000D03*
%TO.P,J1,36,Pin_36*%
%TO.N,Net-(J1-Pin_30)*%
X127772900Y-107950000D03*
%TO.P,J1,34,Pin_34*%
%TO.N,unconnected-(J1-Pin_34-Pad34)*%
X127772900Y-105410000D03*
%TO.P,J1,32,Pin_32*%
%TO.N,unconnected-(J1-Pin_32-Pad32)*%
X127772900Y-102870000D03*
%TO.P,J1,30,Pin_30*%
%TO.N,Net-(J1-Pin_30)*%
X127772900Y-100330000D03*
%TO.P,J1,28,Pin_28*%
%TO.N,unconnected-(J1-Pin_28-Pad28)*%
X127772900Y-97790000D03*
%TO.P,J1,26,Pin_26*%
%TO.N,unconnected-(J1-Pin_26-Pad26)*%
X127772900Y-95250000D03*
%TO.P,J1,24,Pin_24*%
%TO.N,unconnected-(J1-Pin_24-Pad24)*%
X127772900Y-92710000D03*
%TO.P,J1,22,Pin_22*%
%TO.N,unconnected-(J1-Pin_22-Pad22)*%
X127772900Y-90170000D03*
%TO.P,J1,20,Pin_20*%
%TO.N,unconnected-(J1-Pin_20-Pad20)*%
X127772900Y-87630000D03*
%TO.P,J1,18,Pin_18*%
%TO.N,unconnected-(J1-Pin_18-Pad18)*%
X127772900Y-85090000D03*
%TO.P,J1,16,Pin_16*%
%TO.N,unconnected-(J1-Pin_16-Pad16)*%
X127772900Y-82550000D03*
%TO.P,J1,14,Pin_14*%
%TO.N,unconnected-(J1-Pin_14-Pad14)*%
X127772900Y-80010000D03*
%TO.P,J1,12,Pin_12*%
%TO.N,unconnected-(J1-Pin_12-Pad12)*%
X127772900Y-77470000D03*
%TO.P,J1,10,Pin_10*%
%TO.N,unconnected-(J1-Pin_10-Pad10)*%
X127772900Y-74930000D03*
%TO.P,J1,8,Pin_8*%
%TO.N,unconnected-(J1-Pin_8-Pad8)*%
X127772900Y-72390000D03*
%TO.P,J1,6,Pin_6*%
%TO.N,unconnected-(J1-Pin_6-Pad6)*%
X127772900Y-69850000D03*
%TO.P,J1,4,Pin_4*%
%TO.N,unconnected-(J1-Pin_4-Pad4)*%
X127772900Y-67310000D03*
%TO.P,J1,2,Pin_2*%
%TO.N,GND*%
X127772900Y-64770000D03*
%TD*%
D11*
%TO.P,J2,26,Pin_26*%
%TO.N,unconnected-(J2-Pin_26-Pad26)*%
X142235000Y-104155000D03*
%TO.P,J2,25,Pin_25*%
%TO.N,unconnected-(J2-Pin_25-Pad25)*%
X139695000Y-104155000D03*
%TO.P,J2,24,Pin_24*%
%TO.N,unconnected-(J2-Pin_24-Pad24)*%
X142235000Y-101615000D03*
%TO.P,J2,23,Pin_23*%
%TO.N,unconnected-(J2-Pin_23-Pad23)*%
X139695000Y-101615000D03*
%TO.P,J2,22,Pin_22*%
%TO.N,unconnected-(J2-Pin_22-Pad22)*%
X142235000Y-99075000D03*
%TO.P,J2,21,Pin_21*%
%TO.N,unconnected-(J2-Pin_21-Pad21)*%
X139695000Y-99075000D03*
%TO.P,J2,20,Pin_20*%
%TO.N,unconnected-(J2-Pin_20-Pad20)*%
X142235000Y-96535000D03*
%TO.P,J2,19,Pin_19*%
%TO.N,unconnected-(J2-Pin_19-Pad19)*%
X139695000Y-96535000D03*
%TO.P,J2,18,Pin_18*%
%TO.N,unconnected-(J2-Pin_18-Pad18)*%
X142235000Y-93995000D03*
%TO.P,J2,17,Pin_17*%
%TO.N,unconnected-(J2-Pin_17-Pad17)*%
X139695000Y-93995000D03*
%TO.P,J2,16,Pin_16*%
%TO.N,unconnected-(J2-Pin_16-Pad16)*%
X142235000Y-91455000D03*
%TO.P,J2,15,Pin_15*%
%TO.N,unconnected-(J2-Pin_15-Pad15)*%
X139695000Y-91455000D03*
%TO.P,J2,14,Pin_14*%
%TO.N,unconnected-(J2-Pin_14-Pad14)*%
X142235000Y-88915000D03*
%TO.P,J2,13,Pin_13*%
%TO.N,GND*%
X139695000Y-88915000D03*
%TO.P,J2,12,Pin_12*%
%TO.N,unconnected-(J2-Pin_12-Pad12)*%
X142235000Y-86375000D03*
%TO.P,J2,11,Pin_11*%
%TO.N,unconnected-(J2-Pin_11-Pad11)*%
X139695000Y-86375000D03*
%TO.P,J2,10,Pin_10*%
%TO.N,unconnected-(J2-Pin_10-Pad10)*%
X142235000Y-83835000D03*
%TO.P,J2,9,Pin_9*%
%TO.N,unconnected-(J2-Pin_9-Pad9)*%
X139695000Y-83835000D03*
%TO.P,J2,8,Pin_8*%
%TO.N,unconnected-(J2-Pin_8-Pad8)*%
X142235000Y-81295000D03*
%TO.P,J2,7,Pin_7*%
%TO.N,unconnected-(J2-Pin_7-Pad7)*%
X139695000Y-81295000D03*
%TO.P,J2,6,Pin_6*%
%TO.N,unconnected-(J2-Pin_6-Pad6)*%
X142235000Y-78755000D03*
%TO.P,J2,5,Pin_5*%
%TO.N,TxD*%
X139695000Y-78755000D03*
%TO.P,J2,4,Pin_4*%
%TO.N,unconnected-(J2-Pin_4-Pad4)*%
X142235000Y-76215000D03*
%TO.P,J2,3,Pin_3*%
%TO.N,RxD*%
X139695000Y-76215000D03*
%TO.P,J2,2,Pin_2*%
%TO.N,unconnected-(J2-Pin_2-Pad2)*%
X142235000Y-73675000D03*
D12*
%TO.P,J2,1,Pin_1*%
%TO.N,unconnected-(J2-Pin_1-Pad1)*%
X139695000Y-73675000D03*
%TD*%
D13*
%TO.N,GND*%
X132715000Y-62865000D03*
X145415000Y-88900000D03*
X146685000Y-104140000D03*
X133350000Y-114935000D03*
X142240000Y-68580000D03*
X142240000Y-114935000D03*
X147955000Y-114935000D03*
X147955000Y-68580000D03*
X147955000Y-76200000D03*
%TD*%
D14*
%TO.N,Net-(J1-Pin_30)*%
X135509000Y-107823000D02*
X136779000Y-106553000D01*
X136779000Y-106553000D02*
X136779000Y-101473000D01*
X127254000Y-107823000D02*
X135509000Y-107823000D01*
X136779000Y-101473000D02*
X135509000Y-100203000D01*
X135509000Y-100203000D02*
X127254000Y-100203000D01*
%TD*%
%TA.AperFunction,Conductor*%
%TO.N,GND*%
G36*
X134626062Y-61461096D02*
G01*
X134757974Y-61474088D01*
X134781802Y-61478827D01*
X134902794Y-61515530D01*
X134925246Y-61524831D01*
X134980994Y-61554628D01*
X135036739Y-61584425D01*
X135056951Y-61597930D01*
X135154678Y-61678133D01*
X135171866Y-61695321D01*
X135252069Y-61793048D01*
X135265574Y-61813260D01*
X135325167Y-61924750D01*
X135334470Y-61947208D01*
X135371170Y-62068191D01*
X135375912Y-62092031D01*
X135388904Y-62223936D01*
X135389501Y-62236091D01*
X135389501Y-66040000D01*
X135389500Y-66166624D01*
X135425542Y-66417305D01*
X135425543Y-66417309D01*
X135496889Y-66660297D01*
X135496894Y-66660309D01*
X135602093Y-66890665D01*
X135602102Y-66890681D01*
X135739021Y-67103730D01*
X135904869Y-67295130D01*
X136096269Y-67460978D01*
X136309318Y-67597897D01*
X136309334Y-67597906D01*
X136504976Y-67687251D01*
X136539694Y-67703107D01*
X136539696Y-67703107D01*
X136539702Y-67703110D01*
X136745102Y-67763419D01*
X136782693Y-67774457D01*
X137033373Y-67810500D01*
X137154560Y-67810499D01*
X137734534Y-67810499D01*
X137734538Y-67810500D01*
X137759201Y-67810500D01*
X137830798Y-67810500D01*
X156779108Y-67810500D01*
X156843519Y-67810500D01*
X156846470Y-67810535D01*
X157634065Y-67829283D01*
X157639889Y-67829561D01*
X158424230Y-67885658D01*
X158430076Y-67886216D01*
X159210851Y-67979569D01*
X159216649Y-67980402D01*
X159992116Y-68110804D01*
X159997845Y-68111908D01*
X160766194Y-68279052D01*
X160771930Y-68280443D01*
X161531474Y-68483962D01*
X161537100Y-68485614D01*
X162286082Y-68725038D01*
X162291617Y-68726953D01*
X163028380Y-69001752D01*
X163033856Y-69003945D01*
X163756666Y-69313469D01*
X163762009Y-69315909D01*
X164469304Y-69659492D01*
X164474544Y-69662194D01*
X165164670Y-70039031D01*
X165169772Y-70041977D01*
X165841163Y-70451212D01*
X165846127Y-70454401D01*
X166497344Y-70895158D01*
X166502115Y-70898556D01*
X167131571Y-71369760D01*
X167136202Y-71373401D01*
X167685549Y-71826980D01*
X167742557Y-71874050D01*
X167747017Y-71877915D01*
X168328842Y-72406829D01*
X168333113Y-72410902D01*
X168889097Y-72966886D01*
X168893170Y-72971157D01*
X169422084Y-73552982D01*
X169425949Y-73557442D01*
X169926591Y-74163788D01*
X169930236Y-74168425D01*
X170375585Y-74763342D01*
X170401430Y-74797866D01*
X170404847Y-74802663D01*
X170511148Y-74959723D01*
X170845597Y-75453871D01*
X170848787Y-75458836D01*
X171258022Y-76130227D01*
X171260973Y-76135338D01*
X171637802Y-76825449D01*
X171640507Y-76830695D01*
X171984084Y-77537978D01*
X171986535Y-77543346D01*
X172296053Y-78266140D01*
X172298247Y-78271619D01*
X172573038Y-79008361D01*
X172574968Y-79013939D01*
X172814379Y-79762881D01*
X172816042Y-79768543D01*
X173019556Y-80528069D01*
X173020947Y-80533805D01*
X173188084Y-81302121D01*
X173189201Y-81307916D01*
X173319593Y-82083329D01*
X173320433Y-82089171D01*
X173413781Y-82869909D01*
X173414342Y-82875784D01*
X173470436Y-83660074D01*
X173470717Y-83665969D01*
X173489465Y-84453529D01*
X173489500Y-84456480D01*
X173489500Y-99693519D01*
X173489465Y-99696470D01*
X173470717Y-100484030D01*
X173470436Y-100489925D01*
X173414342Y-101274215D01*
X173413781Y-101280090D01*
X173320433Y-102060828D01*
X173319593Y-102066670D01*
X173189201Y-102842083D01*
X173188084Y-102847878D01*
X173020947Y-103616194D01*
X173019556Y-103621930D01*
X172816042Y-104381456D01*
X172814379Y-104387118D01*
X172574968Y-105136060D01*
X172573038Y-105141638D01*
X172298247Y-105878380D01*
X172296053Y-105883859D01*
X171986535Y-106606653D01*
X171984084Y-106612021D01*
X171640507Y-107319304D01*
X171637802Y-107324550D01*
X171260973Y-108014661D01*
X171258022Y-108019772D01*
X170848787Y-108691163D01*
X170845597Y-108696128D01*
X170404854Y-109347326D01*
X170401430Y-109352133D01*
X169930239Y-109981571D01*
X169926591Y-109986211D01*
X169425949Y-110592557D01*
X169422084Y-110597017D01*
X168893170Y-111178842D01*
X168889097Y-111183113D01*
X168333113Y-111739097D01*
X168328842Y-111743170D01*
X167747017Y-112272084D01*
X167742557Y-112275949D01*
X167136211Y-112776591D01*
X167131571Y-112780239D01*
X166502133Y-113251430D01*
X166497326Y-113254854D01*
X165846128Y-113695597D01*
X165841163Y-113698787D01*
X165169772Y-114108022D01*
X165164661Y-114110973D01*
X164474550Y-114487802D01*
X164469304Y-114490507D01*
X163762021Y-114834084D01*
X163756653Y-114836535D01*
X163033859Y-115146053D01*
X163028380Y-115148247D01*
X162291638Y-115423038D01*
X162286060Y-115424968D01*
X161537118Y-115664379D01*
X161531456Y-115666042D01*
X160771930Y-115869556D01*
X160766194Y-115870947D01*
X159997878Y-116038084D01*
X159992083Y-116039201D01*
X159216670Y-116169593D01*
X159210828Y-116170433D01*
X158430090Y-116263781D01*
X158424215Y-116264342D01*
X157639925Y-116320436D01*
X157634030Y-116320717D01*
X156846470Y-116339465D01*
X156843519Y-116339500D01*
X132204000Y-116339500D01*
X132136961Y-116319815D01*
X132091206Y-116267011D01*
X132080000Y-116215500D01*
X132080000Y-112014499D01*
X132099685Y-111947460D01*
X132152489Y-111901705D01*
X132203999Y-111890499D01*
X133835920Y-111890499D01*
X133914545Y-111884312D01*
X134097388Y-111835320D01*
X134225908Y-111769835D01*
X134266046Y-111749385D01*
X134266047Y-111749383D01*
X134266049Y-111749383D01*
X134413157Y-111630257D01*
X134532283Y-111483149D01*
X134618220Y-111314488D01*
X134667212Y-111131645D01*
X134673400Y-111053021D01*
X134673399Y-109926980D01*
X134667212Y-109848355D01*
X134618220Y-109665512D01*
X134574838Y-109580371D01*
X134532285Y-109496853D01*
X134499454Y-109456311D01*
X134413157Y-109349743D01*
X134371937Y-109316364D01*
X134332228Y-109258879D01*
X134329900Y-109189048D01*
X134365695Y-109129044D01*
X134371925Y-109123645D01*
X134413157Y-109090257D01*
X134532283Y-108943149D01*
X134618220Y-108774488D01*
X134660845Y-108615406D01*
X134697210Y-108555746D01*
X134760057Y-108525217D01*
X134780620Y-108523500D01*
X135484079Y-108523500D01*
X135491566Y-108523725D01*
X135551606Y-108527358D01*
X135610782Y-108516513D01*
X135618185Y-108515387D01*
X135621921Y-108514933D01*
X135677872Y-108508140D01*
X135687335Y-108504550D01*
X135708961Y-108498522D01*
X135709893Y-108498351D01*
X135718932Y-108496695D01*
X135773808Y-108471996D01*
X135780678Y-108469150D01*
X135836930Y-108447818D01*
X135845266Y-108442062D01*
X135864821Y-108431034D01*
X135874057Y-108426878D01*
X135921413Y-108389775D01*
X135927404Y-108385366D01*
X135976929Y-108351183D01*
X136016822Y-108306151D01*
X136021924Y-108300731D01*
X137256731Y-107065924D01*
X137262151Y-107060822D01*
X137307183Y-107020929D01*
X137341366Y-106971404D01*
X137345775Y-106965413D01*
X137382878Y-106918057D01*
X137387037Y-106908815D01*
X137398062Y-106889268D01*
X137403818Y-106880930D01*
X137425146Y-106824688D01*
X137428002Y-106817791D01*
X137452694Y-106762932D01*
X137454520Y-106752965D01*
X137460548Y-106731340D01*
X137464140Y-106721872D01*
X137471389Y-106662169D01*
X137472516Y-106654762D01*
X137473563Y-106649048D01*
X137483357Y-106595606D01*
X137479726Y-106535577D01*
X137479500Y-106528090D01*
X137479500Y-104155002D01*
X138439723Y-104155002D01*
X138458793Y-104372975D01*
X138458793Y-104372979D01*
X138515422Y-104584322D01*
X138515424Y-104584326D01*
X138515425Y-104584330D01*
X138537382Y-104631416D01*
X138607897Y-104782638D01*
X138607898Y-104782639D01*
X138733402Y-104961877D01*
X138888123Y-105116598D01*
X139067361Y-105242102D01*
X139265670Y-105334575D01*
X139477023Y-105391207D01*
X139659926Y-105407208D01*
X139694998Y-105410277D01*
X139695000Y-105410277D01*
X139695002Y-105410277D01*
X139723254Y-105407805D01*
X139912977Y-105391207D01*
X140124330Y-105334575D01*
X140322639Y-105242102D01*
X140501877Y-105116598D01*
X140656598Y-104961877D01*
X140782102Y-104782639D01*
X140852618Y-104631414D01*
X140898790Y-104578977D01*
X140965984Y-104559825D01*
X141032865Y-104580041D01*
X141077381Y-104631414D01*
X141147898Y-104782639D01*
X141273402Y-104961877D01*
X141428123Y-105116598D01*
X141607361Y-105242102D01*
X141805670Y-105334575D01*
X142017023Y-105391207D01*
X142199926Y-105407208D01*
X142234998Y-105410277D01*
X142235000Y-105410277D01*
X142235002Y-105410277D01*
X142263254Y-105407805D01*
X142452977Y-105391207D01*
X142664330Y-105334575D01*
X142862639Y-105242102D01*
X143041877Y-105116598D01*
X143196598Y-104961877D01*
X143322102Y-104782639D01*
X143414575Y-104584330D01*
X143471207Y-104372977D01*
X143490277Y-104155000D01*
X143488247Y-104131801D01*
X143480534Y-104043634D01*
X143471207Y-103937023D01*
X143414575Y-103725670D01*
X143322102Y-103527362D01*
X143322100Y-103527359D01*
X143322099Y-103527357D01*
X143196599Y-103348124D01*
X143186568Y-103338093D01*
X143041877Y-103193402D01*
X142862639Y-103067898D01*
X142711414Y-102997381D01*
X142658977Y-102951210D01*
X142639825Y-102884016D01*
X142660041Y-102817135D01*
X142711414Y-102772618D01*
X142862639Y-102702102D01*
X143041877Y-102576598D01*
X143196598Y-102421877D01*
X143322102Y-102242639D01*
X143414575Y-102044330D01*
X143471207Y-101832977D01*
X143490277Y-101615000D01*
X143471207Y-101397023D01*
X143414575Y-101185670D01*
X143322102Y-100987362D01*
X143322100Y-100987359D01*
X143322099Y-100987357D01*
X143196599Y-100808124D01*
X143196596Y-100808121D01*
X143041877Y-100653402D01*
X142862639Y-100527898D01*
X142711414Y-100457381D01*
X142658977Y-100411210D01*
X142639825Y-100344016D01*
X142660041Y-100277135D01*
X142711414Y-100232618D01*
X142862639Y-100162102D01*
X143041877Y-100036598D01*
X143196598Y-99881877D01*
X143322102Y-99702639D01*
X143414575Y-99504330D01*
X143447317Y-99382134D01*
X146184500Y-99382134D01*
X146223398Y-100025204D01*
X146279468Y-100486977D01*
X146301055Y-100664759D01*
X146382272Y-101107943D01*
X146417185Y-101298460D01*
X146571363Y-101923990D01*
X146571367Y-101924006D01*
X146763028Y-102539063D01*
X146991482Y-103141448D01*
X147254421Y-103725677D01*
X147255896Y-103728953D01*
X147492035Y-104178879D01*
X147555300Y-104299419D01*
X147888586Y-104850740D01*
X147888602Y-104850765D01*
X148254567Y-105380957D01*
X148651885Y-105888097D01*
X148651886Y-105888098D01*
X149079100Y-106370323D01*
X149079134Y-106370359D01*
X149534640Y-106825865D01*
X149534676Y-106825899D01*
X150016901Y-107253113D01*
X150016902Y-107253114D01*
X150524041Y-107650431D01*
X151054250Y-108016408D01*
X151605590Y-108349705D01*
X152176047Y-108649104D01*
X152763541Y-108913513D01*
X152763548Y-108913515D01*
X152763551Y-108913517D01*
X152841684Y-108943149D01*
X153365928Y-109141969D01*
X153517010Y-109189048D01*
X153980993Y-109333632D01*
X153981009Y-109333636D01*
X154606541Y-109487815D01*
X155240241Y-109603945D01*
X155799851Y-109671894D01*
X155879795Y-109681601D01*
X155955166Y-109686160D01*
X156522874Y-109720500D01*
X156522887Y-109720500D01*
X157167113Y-109720500D01*
X157167126Y-109720500D01*
X157810204Y-109681601D01*
X158449759Y-109603945D01*
X159083459Y-109487815D01*
X159708991Y-109333636D01*
X159708995Y-109333634D01*
X159709006Y-109333632D01*
X159989430Y-109246247D01*
X160324072Y-109141969D01*
X160926459Y-108913513D01*
X161513953Y-108649104D01*
X162084410Y-108349705D01*
X162635750Y-108016408D01*
X163165959Y-107650431D01*
X163431483Y-107442405D01*
X163673097Y-107253114D01*
X163673098Y-107253113D01*
X163673104Y-107253108D01*
X164155334Y-106825890D01*
X164610890Y-106370334D01*
X165038108Y-105888104D01*
X165038113Y-105888098D01*
X165038114Y-105888097D01*
X165227405Y-105646483D01*
X165435431Y-105380959D01*
X165801408Y-104850750D01*
X166134705Y-104299410D01*
X166434104Y-103728953D01*
X166698513Y-103141459D01*
X166926969Y-102539072D01*
X167031247Y-102204430D01*
X167118632Y-101924006D01*
X167118636Y-101923990D01*
X167152115Y-101788161D01*
X167272815Y-101298459D01*
X167388945Y-100664759D01*
X167466601Y-100025204D01*
X167505500Y-99382126D01*
X167505500Y-99060000D01*
X167505500Y-98994108D01*
X167505500Y-85054201D01*
X167505500Y-84767874D01*
X167466601Y-84124796D01*
X167388945Y-83485241D01*
X167272815Y-82851541D01*
X167118636Y-82226009D01*
X167118632Y-82225993D01*
X166954670Y-81699825D01*
X166926969Y-81610928D01*
X166698513Y-81008541D01*
X166434104Y-80421047D01*
X166134705Y-79850590D01*
X165801408Y-79299250D01*
X165722085Y-79184331D01*
X165435432Y-78769042D01*
X165038114Y-78261902D01*
X165038113Y-78261901D01*
X164610899Y-77779676D01*
X164610865Y-77779640D01*
X164155359Y-77324134D01*
X164155323Y-77324100D01*
X163673098Y-76896886D01*
X163673097Y-76896885D01*
X163165957Y-76499567D01*
X162635765Y-76133602D01*
X162635757Y-76133597D01*
X162635750Y-76133592D01*
X162409833Y-75997020D01*
X162084419Y-75800300D01*
X162084413Y-75800297D01*
X162084410Y-75800295D01*
X161513953Y-75500896D01*
X161513951Y-75500895D01*
X161513947Y-75500893D01*
X160926448Y-75236482D01*
X160454199Y-75057382D01*
X160324072Y-75008031D01*
X160324065Y-75008029D01*
X160324063Y-75008028D01*
X159709006Y-74816367D01*
X159708990Y-74816363D01*
X159083459Y-74662185D01*
X159083461Y-74662185D01*
X158804489Y-74611061D01*
X158449759Y-74546055D01*
X158449751Y-74546054D01*
X157810204Y-74468398D01*
X157167134Y-74429500D01*
X157167126Y-74429500D01*
X156522874Y-74429500D01*
X156522865Y-74429500D01*
X155879795Y-74468398D01*
X155240248Y-74546054D01*
X155240245Y-74546054D01*
X155240241Y-74546055D01*
X154964244Y-74596633D01*
X154606539Y-74662185D01*
X153981009Y-74816363D01*
X153980993Y-74816367D01*
X153365936Y-75008028D01*
X152763551Y-75236482D01*
X152176052Y-75500893D01*
X151605580Y-75800300D01*
X151054259Y-76133586D01*
X151054234Y-76133602D01*
X150524042Y-76499567D01*
X150016902Y-76896885D01*
X150016901Y-76896886D01*
X149534676Y-77324100D01*
X149534640Y-77324134D01*
X149079134Y-77779640D01*
X149079100Y-77779676D01*
X148651886Y-78261901D01*
X148651885Y-78261902D01*
X148254567Y-78769042D01*
X147888602Y-79299234D01*
X147888586Y-79299259D01*
X147555300Y-79850580D01*
X147255893Y-80421052D01*
X146991482Y-81008551D01*
X146763028Y-81610936D01*
X146571367Y-82225993D01*
X146571363Y-82226009D01*
X146417185Y-82851539D01*
X146412742Y-82875784D01*
X146311147Y-83430174D01*
X146301054Y-83485248D01*
X146223398Y-84124795D01*
X146184500Y-84767865D01*
X146184500Y-99382134D01*
X143447317Y-99382134D01*
X143471207Y-99292977D01*
X143490277Y-99075000D01*
X143471207Y-98857023D01*
X143414575Y-98645670D01*
X143322102Y-98447362D01*
X143322100Y-98447359D01*
X143322099Y-98447357D01*
X143196599Y-98268124D01*
X143196596Y-98268121D01*
X143041877Y-98113402D01*
X142862639Y-97987898D01*
X142711414Y-97917381D01*
X142658977Y-97871210D01*
X142639825Y-97804016D01*
X142660041Y-97737135D01*
X142711414Y-97692618D01*
X142862639Y-97622102D01*
X143041877Y-97496598D01*
X143196598Y-97341877D01*
X143322102Y-97162639D01*
X143414575Y-96964330D01*
X143471207Y-96752977D01*
X143490277Y-96535000D01*
X143471207Y-96317023D01*
X143414575Y-96105670D01*
X143322102Y-95907362D01*
X143322100Y-95907359D01*
X143322099Y-95907357D01*
X143196599Y-95728124D01*
X143196596Y-95728121D01*
X143041877Y-95573402D01*
X142862639Y-95447898D01*
X142711414Y-95377381D01*
X142658977Y-95331210D01*
X142639825Y-95264016D01*
X142660041Y-95197135D01*
X142711414Y-95152618D01*
X142862639Y-95082102D01*
X143041877Y-94956598D01*
X143196598Y-94801877D01*
X143322102Y-94622639D01*
X143414575Y-94424330D01*
X143471207Y-94212977D01*
X143490277Y-93995000D01*
X143471207Y-93777023D01*
X143414575Y-93565670D01*
X143322102Y-93367362D01*
X143322100Y-93367359D01*
X143322099Y-93367357D01*
X143196599Y-93188124D01*
X143196596Y-93188121D01*
X143041877Y-93033402D01*
X142862639Y-92907898D01*
X142711414Y-92837381D01*
X142658977Y-92791210D01*
X142639825Y-92724016D01*
X142660041Y-92657135D01*
X142711414Y-92612618D01*
X142862639Y-92542102D01*
X143041877Y-92416598D01*
X143196598Y-92261877D01*
X143322102Y-92082639D01*
X143414575Y-91884330D01*
X143471207Y-91672977D01*
X143490277Y-91455000D01*
X143471207Y-91237023D01*
X143414575Y-91025670D01*
X143322102Y-90827362D01*
X143322100Y-90827359D01*
X143322099Y-90827357D01*
X143196599Y-90648124D01*
X143196596Y-90648121D01*
X143041877Y-90493402D01*
X142862639Y-90367898D01*
X142711414Y-90297381D01*
X142658977Y-90251210D01*
X142639825Y-90184016D01*
X142660041Y-90117135D01*
X142711414Y-90072618D01*
X142862639Y-90002102D01*
X143041877Y-89876598D01*
X143196598Y-89721877D01*
X143322102Y-89542639D01*
X143414575Y-89344330D01*
X143471207Y-89132977D01*
X143490277Y-88915000D01*
X143471207Y-88697023D01*
X143414575Y-88485670D01*
X143322102Y-88287362D01*
X143322100Y-88287359D01*
X143322099Y-88287357D01*
X143196599Y-88108124D01*
X143196596Y-88108121D01*
X143041877Y-87953402D01*
X142862639Y-87827898D01*
X142711414Y-87757381D01*
X142658977Y-87711210D01*
X142639825Y-87644016D01*
X142660041Y-87577135D01*
X142711414Y-87532618D01*
X142862639Y-87462102D01*
X143041877Y-87336598D01*
X143196598Y-87181877D01*
X143322102Y-87002639D01*
X143414575Y-86804330D01*
X143471207Y-86592977D01*
X143490277Y-86375000D01*
X143471207Y-86157023D01*
X143414575Y-85945670D01*
X143322102Y-85747362D01*
X143322100Y-85747359D01*
X143322099Y-85747357D01*
X143196599Y-85568124D01*
X143196596Y-85568121D01*
X143041877Y-85413402D01*
X142862639Y-85287898D01*
X142711414Y-85217381D01*
X142658977Y-85171210D01*
X142639825Y-85104016D01*
X142660041Y-85037135D01*
X142711414Y-84992618D01*
X142862639Y-84922102D01*
X143041877Y-84796598D01*
X143196598Y-84641877D01*
X143322102Y-84462639D01*
X143414575Y-84264330D01*
X143471207Y-84052977D01*
X143490277Y-83835000D01*
X143471207Y-83617023D01*
X143414575Y-83405670D01*
X143322102Y-83207362D01*
X143322100Y-83207359D01*
X143322099Y-83207357D01*
X143196599Y-83028124D01*
X143196596Y-83028121D01*
X143041877Y-82873402D01*
X142862639Y-82747898D01*
X142711414Y-82677381D01*
X142658977Y-82631210D01*
X142639825Y-82564016D01*
X142660041Y-82497135D01*
X142711414Y-82452618D01*
X142862639Y-82382102D01*
X143041877Y-82256598D01*
X143196598Y-82101877D01*
X143322102Y-81922639D01*
X143414575Y-81724330D01*
X143471207Y-81512977D01*
X143489147Y-81307916D01*
X143490277Y-81295002D01*
X143490277Y-81294997D01*
X143480534Y-81183634D01*
X143471207Y-81077023D01*
X143414575Y-80865670D01*
X143322102Y-80667362D01*
X143322100Y-80667359D01*
X143322099Y-80667357D01*
X143196599Y-80488124D01*
X143129522Y-80421047D01*
X143041877Y-80333402D01*
X142862639Y-80207898D01*
X142711414Y-80137381D01*
X142658977Y-80091210D01*
X142639825Y-80024016D01*
X142660041Y-79957135D01*
X142711414Y-79912618D01*
X142862639Y-79842102D01*
X143041877Y-79716598D01*
X143196598Y-79561877D01*
X143322102Y-79382639D01*
X143414575Y-79184330D01*
X143471207Y-78972977D01*
X143490277Y-78755000D01*
X143471207Y-78537023D01*
X143414575Y-78325670D01*
X143322102Y-78127362D01*
X143322100Y-78127359D01*
X143322099Y-78127357D01*
X143196599Y-77948124D01*
X143196596Y-77948121D01*
X143041877Y-77793402D01*
X142862639Y-77667898D01*
X142711414Y-77597381D01*
X142658977Y-77551210D01*
X142639825Y-77484016D01*
X142660041Y-77417135D01*
X142711414Y-77372618D01*
X142862639Y-77302102D01*
X143041877Y-77176598D01*
X143196598Y-77021877D01*
X143322102Y-76842639D01*
X143414575Y-76644330D01*
X143471207Y-76432977D01*
X143490277Y-76215000D01*
X143471207Y-75997023D01*
X143414575Y-75785670D01*
X143322102Y-75587362D01*
X143322100Y-75587359D01*
X143322099Y-75587357D01*
X143196599Y-75408124D01*
X143196596Y-75408121D01*
X143041877Y-75253402D01*
X142862639Y-75127898D01*
X142711414Y-75057381D01*
X142658977Y-75011210D01*
X142639825Y-74944016D01*
X142660041Y-74877135D01*
X142711414Y-74832618D01*
X142862639Y-74762102D01*
X143041877Y-74636598D01*
X143196598Y-74481877D01*
X143322102Y-74302639D01*
X143414575Y-74104330D01*
X143471207Y-73892977D01*
X143490277Y-73675000D01*
X143471207Y-73457023D01*
X143414575Y-73245670D01*
X143322102Y-73047362D01*
X143322100Y-73047359D01*
X143322099Y-73047357D01*
X143196599Y-72868124D01*
X143121950Y-72793475D01*
X143041877Y-72713402D01*
X142862639Y-72587898D01*
X142862640Y-72587898D01*
X142862638Y-72587897D01*
X142763484Y-72541661D01*
X142664330Y-72495425D01*
X142664326Y-72495424D01*
X142664322Y-72495422D01*
X142452977Y-72438793D01*
X142235002Y-72419723D01*
X142234998Y-72419723D01*
X142089682Y-72432436D01*
X142017023Y-72438793D01*
X142017020Y-72438793D01*
X141805677Y-72495422D01*
X141805670Y-72495424D01*
X141805670Y-72495425D01*
X141802391Y-72496954D01*
X141607361Y-72587898D01*
X141607357Y-72587900D01*
X141428121Y-72713402D01*
X141273402Y-72868121D01*
X141171074Y-73014262D01*
X141116497Y-73057887D01*
X141046999Y-73065081D01*
X140984644Y-73033558D01*
X140949230Y-72973328D01*
X140945499Y-72943139D01*
X140945499Y-72793482D01*
X140945498Y-72793475D01*
X140930646Y-72699696D01*
X140873050Y-72586658D01*
X140873046Y-72586654D01*
X140873045Y-72586652D01*
X140783347Y-72496954D01*
X140783344Y-72496952D01*
X140783342Y-72496950D01*
X140706517Y-72457805D01*
X140670301Y-72439352D01*
X140576524Y-72424500D01*
X138813482Y-72424500D01*
X138732519Y-72437323D01*
X138719696Y-72439354D01*
X138606658Y-72496950D01*
X138606657Y-72496951D01*
X138606652Y-72496954D01*
X138516954Y-72586652D01*
X138516951Y-72586657D01*
X138516950Y-72586658D01*
X138497751Y-72624337D01*
X138459352Y-72699698D01*
X138444500Y-72793475D01*
X138444500Y-74556517D01*
X138455292Y-74624657D01*
X138459354Y-74650304D01*
X138516950Y-74763342D01*
X138516952Y-74763344D01*
X138516954Y-74763347D01*
X138606652Y-74853045D01*
X138606654Y-74853046D01*
X138606658Y-74853050D01*
X138719694Y-74910645D01*
X138719698Y-74910647D01*
X138813475Y-74925499D01*
X138813481Y-74925500D01*
X138963140Y-74925499D01*
X139030177Y-74945183D01*
X139075932Y-74997987D01*
X139085876Y-75067145D01*
X139056851Y-75130701D01*
X139034262Y-75151074D01*
X138888118Y-75253405D01*
X138733402Y-75408121D01*
X138607900Y-75587357D01*
X138607898Y-75587361D01*
X138515426Y-75785668D01*
X138515422Y-75785677D01*
X138458793Y-75997020D01*
X138458793Y-75997024D01*
X138439723Y-76214997D01*
X138439723Y-76215002D01*
X138458793Y-76432975D01*
X138458793Y-76432979D01*
X138515422Y-76644322D01*
X138515424Y-76644326D01*
X138515425Y-76644330D01*
X138537382Y-76691416D01*
X138607897Y-76842638D01*
X138607898Y-76842639D01*
X138733402Y-77021877D01*
X138888123Y-77176598D01*
X139029084Y-77275300D01*
X139067361Y-77302102D01*
X139218583Y-77372618D01*
X139271022Y-77418790D01*
X139290174Y-77485984D01*
X139269958Y-77552865D01*
X139218583Y-77597382D01*
X139067361Y-77667898D01*
X139067357Y-77667900D01*
X138888121Y-77793402D01*
X138733402Y-77948121D01*
X138607900Y-78127357D01*
X138607898Y-78127361D01*
X138515426Y-78325668D01*
X138515422Y-78325677D01*
X138458793Y-78537020D01*
X138458793Y-78537024D01*
X138439723Y-78754997D01*
X138439723Y-78755002D01*
X138458793Y-78972975D01*
X138458793Y-78972979D01*
X138515422Y-79184322D01*
X138515424Y-79184326D01*
X138515425Y-79184330D01*
X138537382Y-79231416D01*
X138607897Y-79382638D01*
X138607898Y-79382639D01*
X138733402Y-79561877D01*
X138888123Y-79716598D01*
X139067360Y-79842101D01*
X139067361Y-79842102D01*
X139218583Y-79912618D01*
X139271022Y-79958790D01*
X139290174Y-80025984D01*
X139269958Y-80092865D01*
X139218583Y-80137382D01*
X139067361Y-80207898D01*
X139067357Y-80207900D01*
X138888121Y-80333402D01*
X138733402Y-80488121D01*
X138607900Y-80667357D01*
X138607898Y-80667361D01*
X138515426Y-80865668D01*
X138515422Y-80865677D01*
X138458793Y-81077020D01*
X138458793Y-81077024D01*
X138439723Y-81294997D01*
X138439723Y-81295002D01*
X138458793Y-81512975D01*
X138458793Y-81512979D01*
X138515422Y-81724322D01*
X138515424Y-81724326D01*
X138515425Y-81724330D01*
X138537382Y-81771416D01*
X138607897Y-81922638D01*
X138607898Y-81922639D01*
X138733402Y-82101877D01*
X138888123Y-82256598D01*
X139067360Y-82382101D01*
X139067361Y-82382102D01*
X139218583Y-82452618D01*
X139271022Y-82498790D01*
X139290174Y-82565984D01*
X139269958Y-82632865D01*
X139218583Y-82677382D01*
X139067361Y-82747898D01*
X139067357Y-82747900D01*
X138888121Y-82873402D01*
X138733402Y-83028121D01*
X138607900Y-83207357D01*
X138607898Y-83207361D01*
X138515426Y-83405668D01*
X138515422Y-83405677D01*
X138458793Y-83617020D01*
X138458793Y-83617024D01*
X138439723Y-83834997D01*
X138439723Y-83835002D01*
X138458793Y-84052975D01*
X138458793Y-84052979D01*
X138515422Y-84264322D01*
X138515424Y-84264326D01*
X138515425Y-84264330D01*
X138537382Y-84311416D01*
X138607897Y-84462638D01*
X138632998Y-84498486D01*
X138733402Y-84641877D01*
X138888123Y-84796598D01*
X139067360Y-84922101D01*
X139067361Y-84922102D01*
X139218583Y-84992618D01*
X139271022Y-85038790D01*
X139290174Y-85105984D01*
X139269958Y-85172865D01*
X139218583Y-85217382D01*
X139067361Y-85287898D01*
X139067357Y-85287900D01*
X138888121Y-85413402D01*
X138733402Y-85568121D01*
X138607900Y-85747357D01*
X138607898Y-85747361D01*
X138515426Y-85945668D01*
X138515422Y-85945677D01*
X138458793Y-86157020D01*
X138458793Y-86157024D01*
X138439723Y-86374997D01*
X138439723Y-86375002D01*
X138458793Y-86592975D01*
X138458793Y-86592979D01*
X138515422Y-86804322D01*
X138515424Y-86804326D01*
X138515425Y-86804330D01*
X138537382Y-86851416D01*
X138607897Y-87002638D01*
X138607898Y-87002639D01*
X138733402Y-87181877D01*
X138888123Y-87336598D01*
X139067361Y-87462102D01*
X139265670Y-87554575D01*
X139477023Y-87611207D01*
X139659926Y-87627208D01*
X139694998Y-87630277D01*
X139695000Y-87630277D01*
X139695002Y-87630277D01*
X139723254Y-87627805D01*
X139912977Y-87611207D01*
X140124330Y-87554575D01*
X140322639Y-87462102D01*
X140501877Y-87336598D01*
X140656598Y-87181877D01*
X140782102Y-87002639D01*
X140852618Y-86851414D01*
X140898790Y-86798977D01*
X140965984Y-86779825D01*
X141032865Y-86800041D01*
X141077381Y-86851414D01*
X141147898Y-87002639D01*
X141273402Y-87181877D01*
X141428123Y-87336598D01*
X141607360Y-87462101D01*
X141607361Y-87462102D01*
X141758583Y-87532618D01*
X141811022Y-87578790D01*
X141830174Y-87645984D01*
X141809958Y-87712865D01*
X141758583Y-87757382D01*
X141607361Y-87827898D01*
X141607357Y-87827900D01*
X141428121Y-87953402D01*
X141273402Y-88108121D01*
X141147900Y-88287357D01*
X141147898Y-88287361D01*
X141055426Y-88485668D01*
X141055422Y-88485677D01*
X140998793Y-88697020D01*
X140998793Y-88697024D01*
X140979723Y-88914997D01*
X140979723Y-88915002D01*
X140998793Y-89132975D01*
X140998793Y-89132979D01*
X141055422Y-89344322D01*
X141055424Y-89344326D01*
X141055425Y-89344330D01*
X141101661Y-89443484D01*
X141147897Y-89542638D01*
X141147898Y-89542639D01*
X141273402Y-89721877D01*
X141428123Y-89876598D01*
X141607360Y-90002101D01*
X141607361Y-90002102D01*
X141758583Y-90072618D01*
X141811022Y-90118790D01*
X141830174Y-90185984D01*
X141809958Y-90252865D01*
X141758583Y-90297382D01*
X141607361Y-90367898D01*
X141607357Y-90367900D01*
X141428121Y-90493402D01*
X141273402Y-90648121D01*
X141147900Y-90827357D01*
X141147898Y-90827361D01*
X141077382Y-90978583D01*
X141031209Y-91031022D01*
X140964016Y-91050174D01*
X140897135Y-91029958D01*
X140852618Y-90978583D01*
X140838118Y-90947488D01*
X140782102Y-90827362D01*
X140782100Y-90827359D01*
X140782099Y-90827357D01*
X140656599Y-90648124D01*
X140656596Y-90648121D01*
X140501877Y-90493402D01*
X140322639Y-90367898D01*
X140322640Y-90367898D01*
X140322638Y-90367897D01*
X140223484Y-90321661D01*
X140124330Y-90275425D01*
X140124326Y-90275424D01*
X140124322Y-90275422D01*
X139912977Y-90218793D01*
X139695002Y-90199723D01*
X139694998Y-90199723D01*
X139549682Y-90212436D01*
X139477023Y-90218793D01*
X139477020Y-90218793D01*
X139265677Y-90275422D01*
X139265668Y-90275426D01*
X139067361Y-90367898D01*
X139067357Y-90367900D01*
X138888121Y-90493402D01*
X138733402Y-90648121D01*
X138607900Y-90827357D01*
X138607898Y-90827361D01*
X138515426Y-91025668D01*
X138515422Y-91025677D01*
X138458793Y-91237020D01*
X138458793Y-91237024D01*
X138439723Y-91454997D01*
X138439723Y-91455002D01*
X138458793Y-91672975D01*
X138458793Y-91672979D01*
X138515422Y-91884322D01*
X138515424Y-91884326D01*
X138515425Y-91884330D01*
X138537382Y-91931416D01*
X138607897Y-92082638D01*
X138607898Y-92082639D01*
X138733402Y-92261877D01*
X138888123Y-92416598D01*
X139067360Y-92542101D01*
X139067361Y-92542102D01*
X139218583Y-92612618D01*
X139271022Y-92658790D01*
X139290174Y-92725984D01*
X139269958Y-92792865D01*
X139218583Y-92837382D01*
X139067361Y-92907898D01*
X139067357Y-92907900D01*
X138888121Y-93033402D01*
X138733402Y-93188121D01*
X138607900Y-93367357D01*
X138607898Y-93367361D01*
X138515426Y-93565668D01*
X138515422Y-93565677D01*
X138458793Y-93777020D01*
X138458793Y-93777024D01*
X138439723Y-93994997D01*
X138439723Y-93995002D01*
X138458793Y-94212975D01*
X138458793Y-94212979D01*
X138515422Y-94424322D01*
X138515424Y-94424326D01*
X138515425Y-94424330D01*
X138537382Y-94471416D01*
X138607897Y-94622638D01*
X138607898Y-94622639D01*
X138733402Y-94801877D01*
X138888123Y-94956598D01*
X139067360Y-95082101D01*
X139067361Y-95082102D01*
X139218583Y-95152618D01*
X139271022Y-95198790D01*
X139290174Y-95265984D01*
X139269958Y-95332865D01*
X139218583Y-95377382D01*
X139067361Y-95447898D01*
X139067357Y-95447900D01*
X138888121Y-95573402D01*
X138733402Y-95728121D01*
X138607900Y-95907357D01*
X138607898Y-95907361D01*
X138515426Y-96105668D01*
X138515422Y-96105677D01*
X138458793Y-96317020D01*
X138458793Y-96317024D01*
X138439723Y-96534997D01*
X138439723Y-96535002D01*
X138458793Y-96752975D01*
X138458793Y-96752979D01*
X138515422Y-96964322D01*
X138515424Y-96964326D01*
X138515425Y-96964330D01*
X138537382Y-97011416D01*
X138607897Y-97162638D01*
X138607898Y-97162639D01*
X138733402Y-97341877D01*
X138888123Y-97496598D01*
X139067360Y-97622101D01*
X139067361Y-97622102D01*
X139218583Y-97692618D01*
X139271022Y-97738790D01*
X139290174Y-97805984D01*
X139269958Y-97872865D01*
X139218583Y-97917382D01*
X139067361Y-97987898D01*
X139067357Y-97987900D01*
X138888121Y-98113402D01*
X138733402Y-98268121D01*
X138607900Y-98447357D01*
X138607898Y-98447361D01*
X138515426Y-98645668D01*
X138515422Y-98645677D01*
X138458793Y-98857020D01*
X138458793Y-98857024D01*
X138439723Y-99074997D01*
X138439723Y-99075002D01*
X138458793Y-99292975D01*
X138458793Y-99292979D01*
X138515422Y-99504322D01*
X138515424Y-99504326D01*
X138515425Y-99504330D01*
X138539919Y-99556857D01*
X138607897Y-99702638D01*
X138632998Y-99738486D01*
X138733402Y-99881877D01*
X138888123Y-100036598D01*
X139067360Y-100162101D01*
X139067361Y-100162102D01*
X139218583Y-100232618D01*
X139271022Y-100278790D01*
X139290174Y-100345984D01*
X139269958Y-100412865D01*
X139218583Y-100457382D01*
X139067361Y-100527898D01*
X139067357Y-100527900D01*
X138888121Y-100653402D01*
X138733402Y-100808121D01*
X138607900Y-100987357D01*
X138607898Y-100987361D01*
X138515426Y-101185668D01*
X138515422Y-101185677D01*
X138458793Y-101397020D01*
X138458793Y-101397023D01*
X138454025Y-101451517D01*
X138439723Y-101614997D01*
X138439723Y-101615002D01*
X138458793Y-101832975D01*
X138458793Y-101832979D01*
X138515422Y-102044322D01*
X138515424Y-102044326D01*
X138515425Y-102044330D01*
X138537382Y-102091416D01*
X138607897Y-102242638D01*
X138607898Y-102242639D01*
X138733402Y-102421877D01*
X138888123Y-102576598D01*
X139067360Y-102702101D01*
X139067361Y-102702102D01*
X139218583Y-102772618D01*
X139271022Y-102818790D01*
X139290174Y-102885984D01*
X139269958Y-102952865D01*
X139218583Y-102997382D01*
X139067361Y-103067898D01*
X139067357Y-103067900D01*
X138888121Y-103193402D01*
X138733402Y-103348121D01*
X138607900Y-103527357D01*
X138607898Y-103527361D01*
X138515426Y-103725668D01*
X138515422Y-103725677D01*
X138458793Y-103937020D01*
X138458793Y-103937024D01*
X138439723Y-104154997D01*
X138439723Y-104155002D01*
X137479500Y-104155002D01*
X137479500Y-101497908D01*
X137479726Y-101490421D01*
X137483357Y-101430394D01*
X137483356Y-101430391D01*
X137472516Y-101371235D01*
X137471389Y-101363830D01*
X137469495Y-101348234D01*
X137464140Y-101304128D01*
X137464139Y-101304125D01*
X137460546Y-101294651D01*
X137454519Y-101273029D01*
X137452694Y-101263070D01*
X137452694Y-101263068D01*
X137428010Y-101208223D01*
X137425149Y-101201317D01*
X137403818Y-101145070D01*
X137398058Y-101136726D01*
X137387035Y-101117180D01*
X137382878Y-101107943D01*
X137345763Y-101060569D01*
X137341345Y-101054563D01*
X137307185Y-101005073D01*
X137307183Y-101005071D01*
X137262153Y-100965178D01*
X137256715Y-100960058D01*
X136021940Y-99725283D01*
X136016805Y-99719828D01*
X135976929Y-99674816D01*
X135976924Y-99674812D01*
X135927438Y-99640655D01*
X135921403Y-99636215D01*
X135874060Y-99599124D01*
X135874055Y-99599120D01*
X135864813Y-99594961D01*
X135845266Y-99583936D01*
X135836931Y-99578183D01*
X135836932Y-99578183D01*
X135836930Y-99578182D01*
X135780694Y-99556854D01*
X135773790Y-99553994D01*
X135718932Y-99529305D01*
X135718930Y-99529304D01*
X135708946Y-99527474D01*
X135687343Y-99521451D01*
X135677874Y-99517860D01*
X135677871Y-99517859D01*
X135618171Y-99510610D01*
X135610770Y-99509483D01*
X135551609Y-99498642D01*
X135551603Y-99498642D01*
X135491567Y-99502274D01*
X135484079Y-99502500D01*
X134692673Y-99502500D01*
X134625634Y-99482815D01*
X134582188Y-99434795D01*
X134555345Y-99382113D01*
X134532283Y-99336851D01*
X134413157Y-99189743D01*
X134371937Y-99156364D01*
X134332228Y-99098879D01*
X134329900Y-99029048D01*
X134365695Y-98969044D01*
X134371925Y-98963645D01*
X134413157Y-98930257D01*
X134532283Y-98783149D01*
X134618220Y-98614488D01*
X134667212Y-98431645D01*
X134673400Y-98353021D01*
X134673399Y-97226980D01*
X134667212Y-97148355D01*
X134618220Y-96965512D01*
X134574838Y-96880371D01*
X134532285Y-96796853D01*
X134496753Y-96752975D01*
X134413157Y-96649743D01*
X134371937Y-96616364D01*
X134332228Y-96558879D01*
X134329900Y-96489048D01*
X134365695Y-96429044D01*
X134371925Y-96423645D01*
X134413157Y-96390257D01*
X134532283Y-96243149D01*
X134618220Y-96074488D01*
X134667212Y-95891645D01*
X134673400Y-95813021D01*
X134673399Y-94686980D01*
X134667212Y-94608355D01*
X134618220Y-94425512D01*
X134574838Y-94340371D01*
X134532285Y-94256853D01*
X134496753Y-94212975D01*
X134413157Y-94109743D01*
X134371937Y-94076364D01*
X134332228Y-94018879D01*
X134329900Y-93949048D01*
X134365695Y-93889044D01*
X134371925Y-93883645D01*
X134413157Y-93850257D01*
X134532283Y-93703149D01*
X134618220Y-93534488D01*
X134667212Y-93351645D01*
X134673400Y-93273021D01*
X134673399Y-92146980D01*
X134667212Y-92068355D01*
X134618220Y-91885512D01*
X134574838Y-91800371D01*
X134532285Y-91716853D01*
X134496753Y-91672975D01*
X134413157Y-91569743D01*
X134371937Y-91536364D01*
X134332228Y-91478879D01*
X134329900Y-91409048D01*
X134365695Y-91349044D01*
X134371925Y-91343645D01*
X134413157Y-91310257D01*
X134532283Y-91163149D01*
X134618220Y-90994488D01*
X134667212Y-90811645D01*
X134673400Y-90733021D01*
X134673399Y-89606980D01*
X134667212Y-89528355D01*
X134618220Y-89345512D01*
X134574838Y-89260371D01*
X134532285Y-89176853D01*
X134496753Y-89132975D01*
X134413157Y-89029743D01*
X134371937Y-88996364D01*
X134332228Y-88938879D01*
X134329900Y-88869048D01*
X134365695Y-88809044D01*
X134371925Y-88803645D01*
X134413157Y-88770257D01*
X134532283Y-88623149D01*
X134618220Y-88454488D01*
X134667212Y-88271645D01*
X134673400Y-88193021D01*
X134673399Y-87066980D01*
X134667212Y-86988355D01*
X134618220Y-86805512D01*
X134574838Y-86720371D01*
X134532285Y-86636853D01*
X134496753Y-86592975D01*
X134413157Y-86489743D01*
X134371937Y-86456364D01*
X134332228Y-86398879D01*
X134329900Y-86329048D01*
X134365695Y-86269044D01*
X134371925Y-86263645D01*
X134413157Y-86230257D01*
X134532283Y-86083149D01*
X134618220Y-85914488D01*
X134667212Y-85731645D01*
X134673400Y-85653021D01*
X134673399Y-84526980D01*
X134667212Y-84448355D01*
X134618220Y-84265512D01*
X134546522Y-84124796D01*
X134532285Y-84096853D01*
X134492171Y-84047317D01*
X134413157Y-83949743D01*
X134371937Y-83916364D01*
X134332228Y-83858879D01*
X134329900Y-83789048D01*
X134365695Y-83729044D01*
X134371925Y-83723645D01*
X134413157Y-83690257D01*
X134532283Y-83543149D01*
X134618220Y-83374488D01*
X134667212Y-83191645D01*
X134673400Y-83113021D01*
X134673399Y-81986980D01*
X134667212Y-81908355D01*
X134618220Y-81725512D01*
X134559837Y-81610928D01*
X134532285Y-81556853D01*
X134496753Y-81512975D01*
X134413157Y-81409743D01*
X134371937Y-81376364D01*
X134332228Y-81318879D01*
X134329900Y-81249048D01*
X134365695Y-81189044D01*
X134371925Y-81183645D01*
X134413157Y-81150257D01*
X134532283Y-81003149D01*
X134618220Y-80834488D01*
X134667212Y-80651645D01*
X134673400Y-80573021D01*
X134673399Y-79446980D01*
X134667212Y-79368355D01*
X134618220Y-79185512D01*
X134574838Y-79100371D01*
X134532285Y-79016853D01*
X134464222Y-78932803D01*
X134413157Y-78869743D01*
X134371937Y-78836364D01*
X134332228Y-78778879D01*
X134329900Y-78709048D01*
X134365695Y-78649044D01*
X134371925Y-78643645D01*
X134413157Y-78610257D01*
X134532283Y-78463149D01*
X134618220Y-78294488D01*
X134667212Y-78111645D01*
X134673400Y-78033021D01*
X134673399Y-76906980D01*
X134667212Y-76828355D01*
X134618220Y-76645512D01*
X134574838Y-76560371D01*
X134532285Y-76476853D01*
X134496753Y-76432975D01*
X134413157Y-76329743D01*
X134371937Y-76296364D01*
X134332228Y-76238879D01*
X134329900Y-76169048D01*
X134365695Y-76109044D01*
X134371925Y-76103645D01*
X134413157Y-76070257D01*
X134532283Y-75923149D01*
X134618220Y-75754488D01*
X134667212Y-75571645D01*
X134673400Y-75493021D01*
X134673399Y-74366980D01*
X134667212Y-74288355D01*
X134618220Y-74105512D01*
X134574838Y-74020371D01*
X134532285Y-73936853D01*
X134496753Y-73892975D01*
X134413157Y-73789743D01*
X134371937Y-73756364D01*
X134332228Y-73698879D01*
X134329900Y-73629048D01*
X134365695Y-73569044D01*
X134371925Y-73563645D01*
X134413157Y-73530257D01*
X134532283Y-73383149D01*
X134618220Y-73214488D01*
X134667212Y-73031645D01*
X134673400Y-72953021D01*
X134673399Y-71826980D01*
X134667212Y-71748355D01*
X134618220Y-71565512D01*
X134574838Y-71480371D01*
X134532285Y-71396853D01*
X134499454Y-71356311D01*
X134413157Y-71249743D01*
X134371937Y-71216364D01*
X134332228Y-71158879D01*
X134329900Y-71089048D01*
X134365695Y-71029044D01*
X134371925Y-71023645D01*
X134413157Y-70990257D01*
X134532283Y-70843149D01*
X134618220Y-70674488D01*
X134667212Y-70491645D01*
X134673400Y-70413021D01*
X134673399Y-69286980D01*
X134667212Y-69208355D01*
X134618220Y-69025512D01*
X134574838Y-68940371D01*
X134532285Y-68856853D01*
X134499454Y-68816311D01*
X134413157Y-68709743D01*
X134371937Y-68676364D01*
X134332228Y-68618879D01*
X134329900Y-68549048D01*
X134365695Y-68489044D01*
X134371925Y-68483645D01*
X134413157Y-68450257D01*
X134532283Y-68303149D01*
X134618220Y-68134488D01*
X134667212Y-67951645D01*
X134673400Y-67873021D01*
X134673399Y-66746980D01*
X134667212Y-66668355D01*
X134618220Y-66485512D01*
X134574838Y-66400371D01*
X134532285Y-66316853D01*
X134499454Y-66276311D01*
X134413157Y-66169743D01*
X134326858Y-66099859D01*
X134266046Y-66050614D01*
X134140768Y-65986783D01*
X134097388Y-65964680D01*
X134030462Y-65946747D01*
X133914543Y-65915687D01*
X133835926Y-65909500D01*
X132204000Y-65909500D01*
X132136961Y-65889815D01*
X132091206Y-65837011D01*
X132080000Y-65785500D01*
X132080000Y-61584499D01*
X132099685Y-61517460D01*
X132152489Y-61471705D01*
X132203998Y-61460499D01*
X134613908Y-61460499D01*
X134626062Y-61461096D01*
G37*
%TD.AperFunction*%
%TD*%
M02*
