%TF.GenerationSoftware,KiCad,Pcbnew,7.0.11+dfsg-1build4*%
%TF.CreationDate,2024-08-26T19:24:48+02:00*%
%TF.ProjectId,BC01,42433031-2e6b-4696-9361-645f70636258,rev?*%
%TF.SameCoordinates,Original*%
%TF.FileFunction,Legend,Bot*%
%TF.FilePolarity,Positive*%
%FSLAX46Y46*%
G04 Gerber Fmt 4.6, Leading zero omitted, Abs format (unit mm)*
G04 Created by KiCad (PCBNEW 7.0.11+dfsg-1build4) date 2024-08-26 19:24:48*
%MOMM*%
%LPD*%
G01*
G04 APERTURE LIST*
G04 Aperture macros list*
%AMRoundRect*
0 Rectangle with rounded corners*
0 $1 Rounding radius*
0 $2 $3 $4 $5 $6 $7 $8 $9 X,Y pos of 4 corners*
0 Add a 4 corners polygon primitive as box body*
4,1,4,$2,$3,$4,$5,$6,$7,$8,$9,$2,$3,0*
0 Add four circle primitives for the rounded corners*
1,1,$1+$1,$2,$3*
1,1,$1+$1,$4,$5*
1,1,$1+$1,$6,$7*
1,1,$1+$1,$8,$9*
0 Add four rect primitives between the rounded corners*
20,1,$1+$1,$2,$3,$4,$5,0*
20,1,$1+$1,$4,$5,$6,$7,0*
20,1,$1+$1,$6,$7,$8,$9,0*
20,1,$1+$1,$8,$9,$2,$3,0*%
G04 Aperture macros list end*
%ADD10RoundRect,0.500000X-6.000000X-0.500000X6.000000X-0.500000X6.000000X0.500000X-6.000000X0.500000X0*%
%ADD11O,1.700000X1.700000*%
%ADD12R,1.700000X1.700000*%
G04 APERTURE END LIST*
%LPC*%
D10*
%TO.C,J1*%
X127772900Y-113030000D03*
X127772900Y-110490000D03*
X127772900Y-107950000D03*
X127772900Y-105410000D03*
X127772900Y-102870000D03*
X127772900Y-100330000D03*
X127772900Y-97790000D03*
X127772900Y-95250000D03*
X127772900Y-92710000D03*
X127772900Y-90170000D03*
X127772900Y-87630000D03*
X127772900Y-85090000D03*
X127772900Y-82550000D03*
X127772900Y-80010000D03*
X127772900Y-77470000D03*
X127772900Y-74930000D03*
X127772900Y-72390000D03*
X127772900Y-69850000D03*
X127772900Y-67310000D03*
X127772900Y-64770000D03*
%TD*%
D11*
%TO.C,J2*%
X142235000Y-104155000D03*
X139695000Y-104155000D03*
X142235000Y-101615000D03*
X139695000Y-101615000D03*
X142235000Y-99075000D03*
X139695000Y-99075000D03*
X142235000Y-96535000D03*
X139695000Y-96535000D03*
X142235000Y-93995000D03*
X139695000Y-93995000D03*
X142235000Y-91455000D03*
X139695000Y-91455000D03*
X142235000Y-88915000D03*
X139695000Y-88915000D03*
X142235000Y-86375000D03*
X139695000Y-86375000D03*
X142235000Y-83835000D03*
X139695000Y-83835000D03*
X142235000Y-81295000D03*
X139695000Y-81295000D03*
X142235000Y-78755000D03*
X139695000Y-78755000D03*
X142235000Y-76215000D03*
X139695000Y-76215000D03*
X142235000Y-73675000D03*
D12*
X139695000Y-73675000D03*
%TD*%
%LPD*%
M02*
