%TF.GenerationSoftware,KiCad,Pcbnew,7.0.11+dfsg-1build4*%
%TF.CreationDate,2024-08-08T20:50:29+02:00*%
%TF.ProjectId,BC01,42433031-2e6b-4696-9361-645f70636258,rev?*%
%TF.SameCoordinates,Original*%
%TF.FileFunction,Copper,L2,Bot*%
%TF.FilePolarity,Positive*%
%FSLAX46Y46*%
G04 Gerber Fmt 4.6, Leading zero omitted, Abs format (unit mm)*
G04 Created by KiCad (PCBNEW 7.0.11+dfsg-1build4) date 2024-08-08 20:50:29*
%MOMM*%
%LPD*%
G01*
G04 APERTURE LIST*
G04 Aperture macros list*
%AMRoundRect*
0 Rectangle with rounded corners*
0 $1 Rounding radius*
0 $2 $3 $4 $5 $6 $7 $8 $9 X,Y pos of 4 corners*
0 Add a 4 corners polygon primitive as box body*
4,1,4,$2,$3,$4,$5,$6,$7,$8,$9,$2,$3,0*
0 Add four circle primitives for the rounded corners*
1,1,$1+$1,$2,$3*
1,1,$1+$1,$4,$5*
1,1,$1+$1,$6,$7*
1,1,$1+$1,$8,$9*
0 Add four rect primitives between the rounded corners*
20,1,$1+$1,$2,$3,$4,$5,0*
20,1,$1+$1,$4,$5,$6,$7,0*
20,1,$1+$1,$6,$7,$8,$9,0*
20,1,$1+$1,$8,$9,$2,$3,0*%
G04 Aperture macros list end*
%TA.AperFunction,SMDPad,CuDef*%
%ADD10RoundRect,0.500000X-6.000000X-0.500000X6.000000X-0.500000X6.000000X0.500000X-6.000000X0.500000X0*%
%TD*%
%TA.AperFunction,ComponentPad*%
%ADD11R,1.700000X1.700000*%
%TD*%
%TA.AperFunction,ComponentPad*%
%ADD12O,1.700000X1.700000*%
%TD*%
%TA.AperFunction,ViaPad*%
%ADD13C,0.600000*%
%TD*%
%TA.AperFunction,Conductor*%
%ADD14C,0.600000*%
%TD*%
G04 APERTURE END LIST*
D10*
%TO.P,J1,40,Pin_40*%
%TO.N,GND*%
X127772900Y-113030000D03*
%TO.P,J1,38,Pin_38*%
%TO.N,unconnected-(J1-Pin_38-Pad38)*%
X127772900Y-110490000D03*
%TO.P,J1,36,Pin_36*%
%TO.N,Net-(J1-Pin_30)*%
X127772900Y-107950000D03*
%TO.P,J1,34,Pin_34*%
%TO.N,unconnected-(J1-Pin_34-Pad34)*%
X127772900Y-105410000D03*
%TO.P,J1,32,Pin_32*%
%TO.N,unconnected-(J1-Pin_32-Pad32)*%
X127772900Y-102870000D03*
%TO.P,J1,30,Pin_30*%
%TO.N,Net-(J1-Pin_30)*%
X127772900Y-100330000D03*
%TO.P,J1,28,Pin_28*%
%TO.N,unconnected-(J1-Pin_28-Pad28)*%
X127772900Y-97790000D03*
%TO.P,J1,26,Pin_26*%
%TO.N,unconnected-(J1-Pin_26-Pad26)*%
X127772900Y-95250000D03*
%TO.P,J1,24,Pin_24*%
%TO.N,unconnected-(J1-Pin_24-Pad24)*%
X127772900Y-92710000D03*
%TO.P,J1,22,Pin_22*%
%TO.N,unconnected-(J1-Pin_22-Pad22)*%
X127772900Y-90170000D03*
%TO.P,J1,20,Pin_20*%
%TO.N,unconnected-(J1-Pin_20-Pad20)*%
X127772900Y-87630000D03*
%TO.P,J1,18,Pin_18*%
%TO.N,unconnected-(J1-Pin_18-Pad18)*%
X127772900Y-85090000D03*
%TO.P,J1,16,Pin_16*%
%TO.N,unconnected-(J1-Pin_16-Pad16)*%
X127772900Y-82550000D03*
%TO.P,J1,14,Pin_14*%
%TO.N,unconnected-(J1-Pin_14-Pad14)*%
X127772900Y-80010000D03*
%TO.P,J1,12,Pin_12*%
%TO.N,unconnected-(J1-Pin_12-Pad12)*%
X127772900Y-77470000D03*
%TO.P,J1,10,Pin_10*%
%TO.N,unconnected-(J1-Pin_10-Pad10)*%
X127772900Y-74930000D03*
%TO.P,J1,8,Pin_8*%
%TO.N,unconnected-(J1-Pin_8-Pad8)*%
X127772900Y-72390000D03*
%TO.P,J1,6,Pin_6*%
%TO.N,unconnected-(J1-Pin_6-Pad6)*%
X127772900Y-69850000D03*
%TO.P,J1,4,Pin_4*%
%TO.N,unconnected-(J1-Pin_4-Pad4)*%
X127772900Y-67310000D03*
%TO.P,J1,2,Pin_2*%
%TO.N,GND*%
X127772900Y-64770000D03*
%TD*%
D11*
%TO.P,J2,1,Pin_1*%
%TO.N,unconnected-(J2-Pin_1-Pad1)*%
X142235000Y-73675000D03*
D12*
%TO.P,J2,2,Pin_2*%
%TO.N,unconnected-(J2-Pin_2-Pad2)*%
X144775000Y-73675000D03*
%TO.P,J2,3,Pin_3*%
%TO.N,RxD*%
X142235000Y-76215000D03*
%TO.P,J2,4,Pin_4*%
%TO.N,unconnected-(J2-Pin_4-Pad4)*%
X144775000Y-76215000D03*
%TO.P,J2,5,Pin_5*%
%TO.N,TxD*%
X142235000Y-78755000D03*
%TO.P,J2,6,Pin_6*%
%TO.N,unconnected-(J2-Pin_6-Pad6)*%
X144775000Y-78755000D03*
%TO.P,J2,7,Pin_7*%
%TO.N,unconnected-(J2-Pin_7-Pad7)*%
X142235000Y-81295000D03*
%TO.P,J2,8,Pin_8*%
%TO.N,unconnected-(J2-Pin_8-Pad8)*%
X144775000Y-81295000D03*
%TO.P,J2,9,Pin_9*%
%TO.N,unconnected-(J2-Pin_9-Pad9)*%
X142235000Y-83835000D03*
%TO.P,J2,10,Pin_10*%
%TO.N,unconnected-(J2-Pin_10-Pad10)*%
X144775000Y-83835000D03*
%TO.P,J2,11,Pin_11*%
%TO.N,unconnected-(J2-Pin_11-Pad11)*%
X142235000Y-86375000D03*
%TO.P,J2,12,Pin_12*%
%TO.N,unconnected-(J2-Pin_12-Pad12)*%
X144775000Y-86375000D03*
%TO.P,J2,13,Pin_13*%
%TO.N,GND*%
X142235000Y-88915000D03*
%TO.P,J2,14,Pin_14*%
%TO.N,unconnected-(J2-Pin_14-Pad14)*%
X144775000Y-88915000D03*
%TO.P,J2,15,Pin_15*%
%TO.N,unconnected-(J2-Pin_15-Pad15)*%
X142235000Y-91455000D03*
%TO.P,J2,16,Pin_16*%
%TO.N,unconnected-(J2-Pin_16-Pad16)*%
X144775000Y-91455000D03*
%TO.P,J2,17,Pin_17*%
%TO.N,unconnected-(J2-Pin_17-Pad17)*%
X142235000Y-93995000D03*
%TO.P,J2,18,Pin_18*%
%TO.N,unconnected-(J2-Pin_18-Pad18)*%
X144775000Y-93995000D03*
%TO.P,J2,19,Pin_19*%
%TO.N,unconnected-(J2-Pin_19-Pad19)*%
X142235000Y-96535000D03*
%TO.P,J2,20,Pin_20*%
%TO.N,unconnected-(J2-Pin_20-Pad20)*%
X144775000Y-96535000D03*
%TO.P,J2,21,Pin_21*%
%TO.N,unconnected-(J2-Pin_21-Pad21)*%
X142235000Y-99075000D03*
%TO.P,J2,22,Pin_22*%
%TO.N,unconnected-(J2-Pin_22-Pad22)*%
X144775000Y-99075000D03*
%TO.P,J2,23,Pin_23*%
%TO.N,unconnected-(J2-Pin_23-Pad23)*%
X142235000Y-101615000D03*
%TO.P,J2,24,Pin_24*%
%TO.N,unconnected-(J2-Pin_24-Pad24)*%
X144775000Y-101615000D03*
%TO.P,J2,25,Pin_25*%
%TO.N,unconnected-(J2-Pin_25-Pad25)*%
X142235000Y-104155000D03*
%TO.P,J2,26,Pin_26*%
%TO.N,unconnected-(J2-Pin_26-Pad26)*%
X144775000Y-104155000D03*
%TD*%
D13*
%TO.N,GND*%
X135890000Y-97790000D03*
X150495000Y-76200000D03*
X150495000Y-101600000D03*
X150495000Y-88900000D03*
X150495000Y-114935000D03*
X142240000Y-114935000D03*
X133350000Y-114935000D03*
X142240000Y-62865000D03*
X150495000Y-62865000D03*
X132715000Y-62865000D03*
%TD*%
D14*
%TO.N,Net-(J1-Pin_30)*%
X127254000Y-107823000D02*
X135509000Y-107823000D01*
X135509000Y-107823000D02*
X136779000Y-106553000D01*
X135509000Y-100203000D02*
X127254000Y-100203000D01*
X136779000Y-106553000D02*
X136779000Y-101473000D01*
X136779000Y-101473000D02*
X135509000Y-100203000D01*
%TD*%
%TA.AperFunction,Conductor*%
%TO.N,GND*%
G36*
X151073039Y-62249685D02*
G01*
X151118794Y-62302489D01*
X151130000Y-62354000D01*
X151130000Y-115446000D01*
X151110315Y-115513039D01*
X151057511Y-115558794D01*
X151006000Y-115570000D01*
X132204000Y-115570000D01*
X132136961Y-115550315D01*
X132091206Y-115497511D01*
X132080000Y-115446000D01*
X132080000Y-112014499D01*
X132099685Y-111947460D01*
X132152489Y-111901705D01*
X132203999Y-111890499D01*
X133835920Y-111890499D01*
X133914545Y-111884312D01*
X134097388Y-111835320D01*
X134225908Y-111769835D01*
X134266046Y-111749385D01*
X134266047Y-111749383D01*
X134266049Y-111749383D01*
X134413157Y-111630257D01*
X134532283Y-111483149D01*
X134618220Y-111314488D01*
X134667212Y-111131645D01*
X134673400Y-111053021D01*
X134673399Y-109926980D01*
X134667212Y-109848355D01*
X134618220Y-109665512D01*
X134574838Y-109580371D01*
X134532285Y-109496853D01*
X134499454Y-109456311D01*
X134413157Y-109349743D01*
X134371937Y-109316364D01*
X134332228Y-109258879D01*
X134329900Y-109189048D01*
X134365695Y-109129044D01*
X134371925Y-109123645D01*
X134413157Y-109090257D01*
X134532283Y-108943149D01*
X134618220Y-108774488D01*
X134660845Y-108615406D01*
X134697210Y-108555746D01*
X134760057Y-108525217D01*
X134780620Y-108523500D01*
X135484079Y-108523500D01*
X135491566Y-108523725D01*
X135551606Y-108527358D01*
X135610782Y-108516513D01*
X135618185Y-108515387D01*
X135621921Y-108514933D01*
X135677872Y-108508140D01*
X135687335Y-108504550D01*
X135708961Y-108498522D01*
X135709893Y-108498351D01*
X135718932Y-108496695D01*
X135773808Y-108471996D01*
X135780678Y-108469150D01*
X135836930Y-108447818D01*
X135845266Y-108442062D01*
X135864821Y-108431034D01*
X135874057Y-108426878D01*
X135921413Y-108389775D01*
X135927404Y-108385366D01*
X135976929Y-108351183D01*
X136016822Y-108306151D01*
X136021924Y-108300731D01*
X137256731Y-107065924D01*
X137262151Y-107060822D01*
X137307183Y-107020929D01*
X137341366Y-106971404D01*
X137345775Y-106965413D01*
X137382878Y-106918057D01*
X137387037Y-106908815D01*
X137398062Y-106889268D01*
X137403818Y-106880930D01*
X137425146Y-106824688D01*
X137428002Y-106817791D01*
X137452694Y-106762932D01*
X137454520Y-106752965D01*
X137460548Y-106731340D01*
X137464140Y-106721872D01*
X137471389Y-106662169D01*
X137472516Y-106654762D01*
X137473563Y-106649048D01*
X137483357Y-106595606D01*
X137479726Y-106535577D01*
X137479500Y-106528090D01*
X137479500Y-104155002D01*
X140979723Y-104155002D01*
X140998793Y-104372975D01*
X140998793Y-104372979D01*
X141055422Y-104584322D01*
X141055424Y-104584326D01*
X141055425Y-104584330D01*
X141077382Y-104631416D01*
X141147897Y-104782638D01*
X141147898Y-104782639D01*
X141273402Y-104961877D01*
X141428123Y-105116598D01*
X141607361Y-105242102D01*
X141805670Y-105334575D01*
X142017023Y-105391207D01*
X142199926Y-105407208D01*
X142234998Y-105410277D01*
X142235000Y-105410277D01*
X142235002Y-105410277D01*
X142263254Y-105407805D01*
X142452977Y-105391207D01*
X142664330Y-105334575D01*
X142862639Y-105242102D01*
X143041877Y-105116598D01*
X143196598Y-104961877D01*
X143322102Y-104782639D01*
X143392618Y-104631414D01*
X143438790Y-104578977D01*
X143505984Y-104559825D01*
X143572865Y-104580041D01*
X143617381Y-104631414D01*
X143687898Y-104782639D01*
X143813402Y-104961877D01*
X143968123Y-105116598D01*
X144147361Y-105242102D01*
X144345670Y-105334575D01*
X144557023Y-105391207D01*
X144739926Y-105407208D01*
X144774998Y-105410277D01*
X144775000Y-105410277D01*
X144775002Y-105410277D01*
X144803254Y-105407805D01*
X144992977Y-105391207D01*
X145204330Y-105334575D01*
X145402639Y-105242102D01*
X145581877Y-105116598D01*
X145736598Y-104961877D01*
X145862102Y-104782639D01*
X145954575Y-104584330D01*
X146011207Y-104372977D01*
X146030277Y-104155000D01*
X146011207Y-103937023D01*
X145954575Y-103725670D01*
X145862102Y-103527362D01*
X145862100Y-103527359D01*
X145862099Y-103527357D01*
X145736599Y-103348124D01*
X145736596Y-103348121D01*
X145581877Y-103193402D01*
X145402639Y-103067898D01*
X145251414Y-102997381D01*
X145198977Y-102951210D01*
X145179825Y-102884016D01*
X145200041Y-102817135D01*
X145251414Y-102772618D01*
X145402639Y-102702102D01*
X145581877Y-102576598D01*
X145736598Y-102421877D01*
X145862102Y-102242639D01*
X145954575Y-102044330D01*
X146011207Y-101832977D01*
X146030277Y-101615000D01*
X146011207Y-101397023D01*
X145954575Y-101185670D01*
X145862102Y-100987362D01*
X145862100Y-100987359D01*
X145862099Y-100987357D01*
X145736599Y-100808124D01*
X145736596Y-100808121D01*
X145581877Y-100653402D01*
X145402639Y-100527898D01*
X145251414Y-100457381D01*
X145198977Y-100411210D01*
X145179825Y-100344016D01*
X145200041Y-100277135D01*
X145251414Y-100232618D01*
X145402639Y-100162102D01*
X145581877Y-100036598D01*
X145736598Y-99881877D01*
X145862102Y-99702639D01*
X145954575Y-99504330D01*
X146011207Y-99292977D01*
X146030277Y-99075000D01*
X146011207Y-98857023D01*
X145954575Y-98645670D01*
X145862102Y-98447362D01*
X145862100Y-98447359D01*
X145862099Y-98447357D01*
X145736599Y-98268124D01*
X145736596Y-98268121D01*
X145581877Y-98113402D01*
X145402639Y-97987898D01*
X145251414Y-97917381D01*
X145198977Y-97871210D01*
X145179825Y-97804016D01*
X145200041Y-97737135D01*
X145251414Y-97692618D01*
X145402639Y-97622102D01*
X145581877Y-97496598D01*
X145736598Y-97341877D01*
X145862102Y-97162639D01*
X145954575Y-96964330D01*
X146011207Y-96752977D01*
X146030277Y-96535000D01*
X146011207Y-96317023D01*
X145954575Y-96105670D01*
X145862102Y-95907362D01*
X145862100Y-95907359D01*
X145862099Y-95907357D01*
X145736599Y-95728124D01*
X145736596Y-95728121D01*
X145581877Y-95573402D01*
X145402639Y-95447898D01*
X145251414Y-95377381D01*
X145198977Y-95331210D01*
X145179825Y-95264016D01*
X145200041Y-95197135D01*
X145251414Y-95152618D01*
X145402639Y-95082102D01*
X145581877Y-94956598D01*
X145736598Y-94801877D01*
X145862102Y-94622639D01*
X145954575Y-94424330D01*
X146011207Y-94212977D01*
X146030277Y-93995000D01*
X146011207Y-93777023D01*
X145954575Y-93565670D01*
X145862102Y-93367362D01*
X145862100Y-93367359D01*
X145862099Y-93367357D01*
X145736599Y-93188124D01*
X145736596Y-93188121D01*
X145581877Y-93033402D01*
X145402639Y-92907898D01*
X145251414Y-92837381D01*
X145198977Y-92791210D01*
X145179825Y-92724016D01*
X145200041Y-92657135D01*
X145251414Y-92612618D01*
X145402639Y-92542102D01*
X145581877Y-92416598D01*
X145736598Y-92261877D01*
X145862102Y-92082639D01*
X145954575Y-91884330D01*
X146011207Y-91672977D01*
X146030277Y-91455000D01*
X146011207Y-91237023D01*
X145954575Y-91025670D01*
X145862102Y-90827362D01*
X145862100Y-90827359D01*
X145862099Y-90827357D01*
X145736599Y-90648124D01*
X145736596Y-90648121D01*
X145581877Y-90493402D01*
X145402639Y-90367898D01*
X145251414Y-90297381D01*
X145198977Y-90251210D01*
X145179825Y-90184016D01*
X145200041Y-90117135D01*
X145251414Y-90072618D01*
X145402639Y-90002102D01*
X145581877Y-89876598D01*
X145736598Y-89721877D01*
X145862102Y-89542639D01*
X145954575Y-89344330D01*
X146011207Y-89132977D01*
X146030277Y-88915000D01*
X146011207Y-88697023D01*
X145954575Y-88485670D01*
X145862102Y-88287362D01*
X145862100Y-88287359D01*
X145862099Y-88287357D01*
X145736599Y-88108124D01*
X145736596Y-88108121D01*
X145581877Y-87953402D01*
X145402639Y-87827898D01*
X145251414Y-87757381D01*
X145198977Y-87711210D01*
X145179825Y-87644016D01*
X145200041Y-87577135D01*
X145251414Y-87532618D01*
X145402639Y-87462102D01*
X145581877Y-87336598D01*
X145736598Y-87181877D01*
X145862102Y-87002639D01*
X145954575Y-86804330D01*
X146011207Y-86592977D01*
X146030277Y-86375000D01*
X146011207Y-86157023D01*
X145954575Y-85945670D01*
X145862102Y-85747362D01*
X145862100Y-85747359D01*
X145862099Y-85747357D01*
X145736599Y-85568124D01*
X145736596Y-85568121D01*
X145581877Y-85413402D01*
X145402639Y-85287898D01*
X145251414Y-85217381D01*
X145198977Y-85171210D01*
X145179825Y-85104016D01*
X145200041Y-85037135D01*
X145251414Y-84992618D01*
X145402639Y-84922102D01*
X145581877Y-84796598D01*
X145736598Y-84641877D01*
X145862102Y-84462639D01*
X145954575Y-84264330D01*
X146011207Y-84052977D01*
X146030277Y-83835000D01*
X146011207Y-83617023D01*
X145954575Y-83405670D01*
X145862102Y-83207362D01*
X145862100Y-83207359D01*
X145862099Y-83207357D01*
X145736599Y-83028124D01*
X145736596Y-83028121D01*
X145581877Y-82873402D01*
X145402639Y-82747898D01*
X145251414Y-82677381D01*
X145198977Y-82631210D01*
X145179825Y-82564016D01*
X145200041Y-82497135D01*
X145251414Y-82452618D01*
X145402639Y-82382102D01*
X145581877Y-82256598D01*
X145736598Y-82101877D01*
X145862102Y-81922639D01*
X145954575Y-81724330D01*
X146011207Y-81512977D01*
X146030277Y-81295000D01*
X146011207Y-81077023D01*
X145954575Y-80865670D01*
X145862102Y-80667362D01*
X145862100Y-80667359D01*
X145862099Y-80667357D01*
X145736599Y-80488124D01*
X145736596Y-80488121D01*
X145581877Y-80333402D01*
X145402639Y-80207898D01*
X145251414Y-80137381D01*
X145198977Y-80091210D01*
X145179825Y-80024016D01*
X145200041Y-79957135D01*
X145251414Y-79912618D01*
X145402639Y-79842102D01*
X145581877Y-79716598D01*
X145736598Y-79561877D01*
X145862102Y-79382639D01*
X145954575Y-79184330D01*
X146011207Y-78972977D01*
X146030277Y-78755000D01*
X146011207Y-78537023D01*
X145954575Y-78325670D01*
X145862102Y-78127362D01*
X145862100Y-78127359D01*
X145862099Y-78127357D01*
X145736599Y-77948124D01*
X145736596Y-77948121D01*
X145581877Y-77793402D01*
X145402639Y-77667898D01*
X145251414Y-77597381D01*
X145198977Y-77551210D01*
X145179825Y-77484016D01*
X145200041Y-77417135D01*
X145251414Y-77372618D01*
X145402639Y-77302102D01*
X145581877Y-77176598D01*
X145736598Y-77021877D01*
X145862102Y-76842639D01*
X145954575Y-76644330D01*
X146011207Y-76432977D01*
X146030277Y-76215000D01*
X146011207Y-75997023D01*
X145954575Y-75785670D01*
X145862102Y-75587362D01*
X145862100Y-75587359D01*
X145862099Y-75587357D01*
X145736599Y-75408124D01*
X145736596Y-75408121D01*
X145581877Y-75253402D01*
X145402639Y-75127898D01*
X145251414Y-75057381D01*
X145198977Y-75011210D01*
X145179825Y-74944016D01*
X145200041Y-74877135D01*
X145251414Y-74832618D01*
X145402639Y-74762102D01*
X145581877Y-74636598D01*
X145736598Y-74481877D01*
X145862102Y-74302639D01*
X145954575Y-74104330D01*
X146011207Y-73892977D01*
X146030277Y-73675000D01*
X146011207Y-73457023D01*
X145954575Y-73245670D01*
X145862102Y-73047362D01*
X145862100Y-73047359D01*
X145862099Y-73047357D01*
X145736599Y-72868124D01*
X145661950Y-72793475D01*
X145581877Y-72713402D01*
X145402639Y-72587898D01*
X145402640Y-72587898D01*
X145402638Y-72587897D01*
X145303484Y-72541661D01*
X145204330Y-72495425D01*
X145204326Y-72495424D01*
X145204322Y-72495422D01*
X144992977Y-72438793D01*
X144775002Y-72419723D01*
X144774998Y-72419723D01*
X144629682Y-72432436D01*
X144557023Y-72438793D01*
X144557020Y-72438793D01*
X144345677Y-72495422D01*
X144345670Y-72495424D01*
X144345670Y-72495425D01*
X144342391Y-72496954D01*
X144147361Y-72587898D01*
X144147357Y-72587900D01*
X143968121Y-72713402D01*
X143813402Y-72868121D01*
X143711074Y-73014262D01*
X143656497Y-73057887D01*
X143586999Y-73065081D01*
X143524644Y-73033558D01*
X143489230Y-72973328D01*
X143485499Y-72943139D01*
X143485499Y-72793482D01*
X143485498Y-72793475D01*
X143470646Y-72699696D01*
X143413050Y-72586658D01*
X143413046Y-72586654D01*
X143413045Y-72586652D01*
X143323347Y-72496954D01*
X143323344Y-72496952D01*
X143323342Y-72496950D01*
X143246517Y-72457805D01*
X143210301Y-72439352D01*
X143116524Y-72424500D01*
X141353482Y-72424500D01*
X141272519Y-72437323D01*
X141259696Y-72439354D01*
X141146658Y-72496950D01*
X141146657Y-72496951D01*
X141146652Y-72496954D01*
X141056954Y-72586652D01*
X141056951Y-72586657D01*
X141056950Y-72586658D01*
X141037751Y-72624337D01*
X140999352Y-72699698D01*
X140984500Y-72793475D01*
X140984500Y-74556517D01*
X140995292Y-74624657D01*
X140999354Y-74650304D01*
X141056950Y-74763342D01*
X141056952Y-74763344D01*
X141056954Y-74763347D01*
X141146652Y-74853045D01*
X141146654Y-74853046D01*
X141146658Y-74853050D01*
X141259694Y-74910645D01*
X141259698Y-74910647D01*
X141353475Y-74925499D01*
X141353481Y-74925500D01*
X141503140Y-74925499D01*
X141570177Y-74945183D01*
X141615932Y-74997987D01*
X141625876Y-75067145D01*
X141596851Y-75130701D01*
X141574262Y-75151074D01*
X141428118Y-75253405D01*
X141273402Y-75408121D01*
X141147900Y-75587357D01*
X141147898Y-75587361D01*
X141055426Y-75785668D01*
X141055422Y-75785677D01*
X140998793Y-75997020D01*
X140998793Y-75997024D01*
X140979723Y-76214997D01*
X140979723Y-76215002D01*
X140998793Y-76432975D01*
X140998793Y-76432979D01*
X141055422Y-76644322D01*
X141055424Y-76644326D01*
X141055425Y-76644330D01*
X141077382Y-76691416D01*
X141147897Y-76842638D01*
X141147898Y-76842639D01*
X141273402Y-77021877D01*
X141428123Y-77176598D01*
X141607360Y-77302101D01*
X141607361Y-77302102D01*
X141758583Y-77372618D01*
X141811022Y-77418790D01*
X141830174Y-77485984D01*
X141809958Y-77552865D01*
X141758583Y-77597382D01*
X141607361Y-77667898D01*
X141607357Y-77667900D01*
X141428121Y-77793402D01*
X141273402Y-77948121D01*
X141147900Y-78127357D01*
X141147898Y-78127361D01*
X141055426Y-78325668D01*
X141055422Y-78325677D01*
X140998793Y-78537020D01*
X140998793Y-78537024D01*
X140979723Y-78754997D01*
X140979723Y-78755002D01*
X140998793Y-78972975D01*
X140998793Y-78972979D01*
X141055422Y-79184322D01*
X141055424Y-79184326D01*
X141055425Y-79184330D01*
X141077382Y-79231416D01*
X141147897Y-79382638D01*
X141147898Y-79382639D01*
X141273402Y-79561877D01*
X141428123Y-79716598D01*
X141607360Y-79842101D01*
X141607361Y-79842102D01*
X141758583Y-79912618D01*
X141811022Y-79958790D01*
X141830174Y-80025984D01*
X141809958Y-80092865D01*
X141758583Y-80137382D01*
X141607361Y-80207898D01*
X141607357Y-80207900D01*
X141428121Y-80333402D01*
X141273402Y-80488121D01*
X141147900Y-80667357D01*
X141147898Y-80667361D01*
X141055426Y-80865668D01*
X141055422Y-80865677D01*
X140998793Y-81077020D01*
X140998793Y-81077024D01*
X140979723Y-81294997D01*
X140979723Y-81295002D01*
X140998793Y-81512975D01*
X140998793Y-81512979D01*
X141055422Y-81724322D01*
X141055424Y-81724326D01*
X141055425Y-81724330D01*
X141077382Y-81771416D01*
X141147897Y-81922638D01*
X141147898Y-81922639D01*
X141273402Y-82101877D01*
X141428123Y-82256598D01*
X141607360Y-82382101D01*
X141607361Y-82382102D01*
X141758583Y-82452618D01*
X141811022Y-82498790D01*
X141830174Y-82565984D01*
X141809958Y-82632865D01*
X141758583Y-82677382D01*
X141607361Y-82747898D01*
X141607357Y-82747900D01*
X141428121Y-82873402D01*
X141273402Y-83028121D01*
X141147900Y-83207357D01*
X141147898Y-83207361D01*
X141055426Y-83405668D01*
X141055422Y-83405677D01*
X140998793Y-83617020D01*
X140998793Y-83617024D01*
X140979723Y-83834997D01*
X140979723Y-83835002D01*
X140998793Y-84052975D01*
X140998793Y-84052979D01*
X141055422Y-84264322D01*
X141055424Y-84264326D01*
X141055425Y-84264330D01*
X141077382Y-84311416D01*
X141147897Y-84462638D01*
X141147898Y-84462639D01*
X141273402Y-84641877D01*
X141428123Y-84796598D01*
X141607360Y-84922101D01*
X141607361Y-84922102D01*
X141758583Y-84992618D01*
X141811022Y-85038790D01*
X141830174Y-85105984D01*
X141809958Y-85172865D01*
X141758583Y-85217382D01*
X141607361Y-85287898D01*
X141607357Y-85287900D01*
X141428121Y-85413402D01*
X141273402Y-85568121D01*
X141147900Y-85747357D01*
X141147898Y-85747361D01*
X141055426Y-85945668D01*
X141055422Y-85945677D01*
X140998793Y-86157020D01*
X140998793Y-86157024D01*
X140979723Y-86374997D01*
X140979723Y-86375002D01*
X140998793Y-86592975D01*
X140998793Y-86592979D01*
X141055422Y-86804322D01*
X141055424Y-86804326D01*
X141055425Y-86804330D01*
X141077382Y-86851416D01*
X141147897Y-87002638D01*
X141147898Y-87002639D01*
X141273402Y-87181877D01*
X141428123Y-87336598D01*
X141607361Y-87462102D01*
X141805670Y-87554575D01*
X142017023Y-87611207D01*
X142199926Y-87627208D01*
X142234998Y-87630277D01*
X142235000Y-87630277D01*
X142235002Y-87630277D01*
X142263254Y-87627805D01*
X142452977Y-87611207D01*
X142664330Y-87554575D01*
X142862639Y-87462102D01*
X143041877Y-87336598D01*
X143196598Y-87181877D01*
X143322102Y-87002639D01*
X143392618Y-86851414D01*
X143438790Y-86798977D01*
X143505984Y-86779825D01*
X143572865Y-86800041D01*
X143617381Y-86851414D01*
X143687898Y-87002639D01*
X143813402Y-87181877D01*
X143968123Y-87336598D01*
X144147360Y-87462101D01*
X144147361Y-87462102D01*
X144298583Y-87532618D01*
X144351022Y-87578790D01*
X144370174Y-87645984D01*
X144349958Y-87712865D01*
X144298583Y-87757382D01*
X144147361Y-87827898D01*
X144147357Y-87827900D01*
X143968121Y-87953402D01*
X143813402Y-88108121D01*
X143687900Y-88287357D01*
X143687898Y-88287361D01*
X143595426Y-88485668D01*
X143595422Y-88485677D01*
X143538793Y-88697020D01*
X143538793Y-88697024D01*
X143519723Y-88914997D01*
X143519723Y-88915002D01*
X143538793Y-89132975D01*
X143538793Y-89132979D01*
X143595422Y-89344322D01*
X143595424Y-89344326D01*
X143595425Y-89344330D01*
X143641661Y-89443484D01*
X143687897Y-89542638D01*
X143687898Y-89542639D01*
X143813402Y-89721877D01*
X143968123Y-89876598D01*
X144147360Y-90002101D01*
X144147361Y-90002102D01*
X144298583Y-90072618D01*
X144351022Y-90118790D01*
X144370174Y-90185984D01*
X144349958Y-90252865D01*
X144298583Y-90297382D01*
X144147361Y-90367898D01*
X144147357Y-90367900D01*
X143968121Y-90493402D01*
X143813402Y-90648121D01*
X143687900Y-90827357D01*
X143687898Y-90827361D01*
X143617382Y-90978583D01*
X143571209Y-91031022D01*
X143504016Y-91050174D01*
X143437135Y-91029958D01*
X143392618Y-90978583D01*
X143378118Y-90947488D01*
X143322102Y-90827362D01*
X143322100Y-90827359D01*
X143322099Y-90827357D01*
X143196599Y-90648124D01*
X143196596Y-90648121D01*
X143041877Y-90493402D01*
X142862639Y-90367898D01*
X142862640Y-90367898D01*
X142862638Y-90367897D01*
X142763484Y-90321661D01*
X142664330Y-90275425D01*
X142664326Y-90275424D01*
X142664322Y-90275422D01*
X142452977Y-90218793D01*
X142235002Y-90199723D01*
X142234998Y-90199723D01*
X142089682Y-90212436D01*
X142017023Y-90218793D01*
X142017020Y-90218793D01*
X141805677Y-90275422D01*
X141805668Y-90275426D01*
X141607361Y-90367898D01*
X141607357Y-90367900D01*
X141428121Y-90493402D01*
X141273402Y-90648121D01*
X141147900Y-90827357D01*
X141147898Y-90827361D01*
X141055426Y-91025668D01*
X141055422Y-91025677D01*
X140998793Y-91237020D01*
X140998793Y-91237024D01*
X140979723Y-91454997D01*
X140979723Y-91455002D01*
X140998793Y-91672975D01*
X140998793Y-91672979D01*
X141055422Y-91884322D01*
X141055424Y-91884326D01*
X141055425Y-91884330D01*
X141077382Y-91931416D01*
X141147897Y-92082638D01*
X141147898Y-92082639D01*
X141273402Y-92261877D01*
X141428123Y-92416598D01*
X141607360Y-92542101D01*
X141607361Y-92542102D01*
X141758583Y-92612618D01*
X141811022Y-92658790D01*
X141830174Y-92725984D01*
X141809958Y-92792865D01*
X141758583Y-92837382D01*
X141607361Y-92907898D01*
X141607357Y-92907900D01*
X141428121Y-93033402D01*
X141273402Y-93188121D01*
X141147900Y-93367357D01*
X141147898Y-93367361D01*
X141055426Y-93565668D01*
X141055422Y-93565677D01*
X140998793Y-93777020D01*
X140998793Y-93777024D01*
X140979723Y-93994997D01*
X140979723Y-93995002D01*
X140998793Y-94212975D01*
X140998793Y-94212979D01*
X141055422Y-94424322D01*
X141055424Y-94424326D01*
X141055425Y-94424330D01*
X141077382Y-94471416D01*
X141147897Y-94622638D01*
X141147898Y-94622639D01*
X141273402Y-94801877D01*
X141428123Y-94956598D01*
X141607360Y-95082101D01*
X141607361Y-95082102D01*
X141758583Y-95152618D01*
X141811022Y-95198790D01*
X141830174Y-95265984D01*
X141809958Y-95332865D01*
X141758583Y-95377382D01*
X141607361Y-95447898D01*
X141607357Y-95447900D01*
X141428121Y-95573402D01*
X141273402Y-95728121D01*
X141147900Y-95907357D01*
X141147898Y-95907361D01*
X141055426Y-96105668D01*
X141055422Y-96105677D01*
X140998793Y-96317020D01*
X140998793Y-96317024D01*
X140979723Y-96534997D01*
X140979723Y-96535002D01*
X140998793Y-96752975D01*
X140998793Y-96752979D01*
X141055422Y-96964322D01*
X141055424Y-96964326D01*
X141055425Y-96964330D01*
X141077382Y-97011416D01*
X141147897Y-97162638D01*
X141147898Y-97162639D01*
X141273402Y-97341877D01*
X141428123Y-97496598D01*
X141607360Y-97622101D01*
X141607361Y-97622102D01*
X141758583Y-97692618D01*
X141811022Y-97738790D01*
X141830174Y-97805984D01*
X141809958Y-97872865D01*
X141758583Y-97917382D01*
X141607361Y-97987898D01*
X141607357Y-97987900D01*
X141428121Y-98113402D01*
X141273402Y-98268121D01*
X141147900Y-98447357D01*
X141147898Y-98447361D01*
X141055426Y-98645668D01*
X141055422Y-98645677D01*
X140998793Y-98857020D01*
X140998793Y-98857024D01*
X140979723Y-99074997D01*
X140979723Y-99075002D01*
X140998793Y-99292975D01*
X140998793Y-99292979D01*
X141055422Y-99504322D01*
X141055424Y-99504326D01*
X141055425Y-99504330D01*
X141079919Y-99556857D01*
X141147897Y-99702638D01*
X141172998Y-99738486D01*
X141273402Y-99881877D01*
X141428123Y-100036598D01*
X141607360Y-100162101D01*
X141607361Y-100162102D01*
X141758583Y-100232618D01*
X141811022Y-100278790D01*
X141830174Y-100345984D01*
X141809958Y-100412865D01*
X141758583Y-100457382D01*
X141607361Y-100527898D01*
X141607357Y-100527900D01*
X141428121Y-100653402D01*
X141273402Y-100808121D01*
X141147900Y-100987357D01*
X141147898Y-100987361D01*
X141055426Y-101185668D01*
X141055422Y-101185677D01*
X140998793Y-101397020D01*
X140998793Y-101397023D01*
X140994025Y-101451517D01*
X140979723Y-101614997D01*
X140979723Y-101615002D01*
X140998793Y-101832975D01*
X140998793Y-101832979D01*
X141055422Y-102044322D01*
X141055424Y-102044326D01*
X141055425Y-102044330D01*
X141077382Y-102091416D01*
X141147897Y-102242638D01*
X141147898Y-102242639D01*
X141273402Y-102421877D01*
X141428123Y-102576598D01*
X141607360Y-102702101D01*
X141607361Y-102702102D01*
X141758583Y-102772618D01*
X141811022Y-102818790D01*
X141830174Y-102885984D01*
X141809958Y-102952865D01*
X141758583Y-102997382D01*
X141607361Y-103067898D01*
X141607357Y-103067900D01*
X141428121Y-103193402D01*
X141273402Y-103348121D01*
X141147900Y-103527357D01*
X141147898Y-103527361D01*
X141055426Y-103725668D01*
X141055422Y-103725677D01*
X140998793Y-103937020D01*
X140998793Y-103937024D01*
X140979723Y-104154997D01*
X140979723Y-104155002D01*
X137479500Y-104155002D01*
X137479500Y-101497908D01*
X137479726Y-101490421D01*
X137483357Y-101430394D01*
X137483356Y-101430391D01*
X137472516Y-101371235D01*
X137471389Y-101363830D01*
X137469495Y-101348234D01*
X137464140Y-101304128D01*
X137460546Y-101294651D01*
X137454519Y-101273029D01*
X137452694Y-101263070D01*
X137452694Y-101263068D01*
X137428010Y-101208223D01*
X137425149Y-101201317D01*
X137403818Y-101145070D01*
X137398058Y-101136726D01*
X137387035Y-101117180D01*
X137382878Y-101107943D01*
X137345763Y-101060569D01*
X137341345Y-101054563D01*
X137307185Y-101005073D01*
X137307183Y-101005071D01*
X137262153Y-100965178D01*
X137256715Y-100960058D01*
X136021940Y-99725283D01*
X136016805Y-99719828D01*
X135976929Y-99674816D01*
X135976924Y-99674812D01*
X135927438Y-99640655D01*
X135921403Y-99636215D01*
X135874060Y-99599124D01*
X135874055Y-99599120D01*
X135864813Y-99594961D01*
X135845266Y-99583936D01*
X135836931Y-99578183D01*
X135836932Y-99578183D01*
X135836930Y-99578182D01*
X135780694Y-99556854D01*
X135773790Y-99553994D01*
X135718932Y-99529305D01*
X135718930Y-99529304D01*
X135708946Y-99527474D01*
X135687343Y-99521451D01*
X135677874Y-99517860D01*
X135677871Y-99517859D01*
X135618171Y-99510610D01*
X135610770Y-99509483D01*
X135551609Y-99498642D01*
X135551603Y-99498642D01*
X135491567Y-99502274D01*
X135484079Y-99502500D01*
X134692673Y-99502500D01*
X134625634Y-99482815D01*
X134582188Y-99434795D01*
X134565123Y-99401304D01*
X134532283Y-99336851D01*
X134413157Y-99189743D01*
X134371937Y-99156364D01*
X134332228Y-99098879D01*
X134329900Y-99029048D01*
X134365695Y-98969044D01*
X134371925Y-98963645D01*
X134413157Y-98930257D01*
X134532283Y-98783149D01*
X134618220Y-98614488D01*
X134667212Y-98431645D01*
X134673400Y-98353021D01*
X134673399Y-97226980D01*
X134667212Y-97148355D01*
X134618220Y-96965512D01*
X134574838Y-96880371D01*
X134532285Y-96796853D01*
X134496753Y-96752975D01*
X134413157Y-96649743D01*
X134371937Y-96616364D01*
X134332228Y-96558879D01*
X134329900Y-96489048D01*
X134365695Y-96429044D01*
X134371925Y-96423645D01*
X134413157Y-96390257D01*
X134532283Y-96243149D01*
X134618220Y-96074488D01*
X134667212Y-95891645D01*
X134673400Y-95813021D01*
X134673399Y-94686980D01*
X134667212Y-94608355D01*
X134618220Y-94425512D01*
X134574838Y-94340371D01*
X134532285Y-94256853D01*
X134496753Y-94212975D01*
X134413157Y-94109743D01*
X134371937Y-94076364D01*
X134332228Y-94018879D01*
X134329900Y-93949048D01*
X134365695Y-93889044D01*
X134371925Y-93883645D01*
X134413157Y-93850257D01*
X134532283Y-93703149D01*
X134618220Y-93534488D01*
X134667212Y-93351645D01*
X134673400Y-93273021D01*
X134673399Y-92146980D01*
X134667212Y-92068355D01*
X134618220Y-91885512D01*
X134574838Y-91800371D01*
X134532285Y-91716853D01*
X134496753Y-91672975D01*
X134413157Y-91569743D01*
X134371937Y-91536364D01*
X134332228Y-91478879D01*
X134329900Y-91409048D01*
X134365695Y-91349044D01*
X134371925Y-91343645D01*
X134413157Y-91310257D01*
X134532283Y-91163149D01*
X134618220Y-90994488D01*
X134667212Y-90811645D01*
X134673400Y-90733021D01*
X134673399Y-89606980D01*
X134667212Y-89528355D01*
X134618220Y-89345512D01*
X134574838Y-89260371D01*
X134532285Y-89176853D01*
X134496753Y-89132975D01*
X134413157Y-89029743D01*
X134371937Y-88996364D01*
X134332228Y-88938879D01*
X134329900Y-88869048D01*
X134365695Y-88809044D01*
X134371925Y-88803645D01*
X134413157Y-88770257D01*
X134532283Y-88623149D01*
X134618220Y-88454488D01*
X134667212Y-88271645D01*
X134673400Y-88193021D01*
X134673399Y-87066980D01*
X134667212Y-86988355D01*
X134618220Y-86805512D01*
X134574838Y-86720371D01*
X134532285Y-86636853D01*
X134496753Y-86592975D01*
X134413157Y-86489743D01*
X134371937Y-86456364D01*
X134332228Y-86398879D01*
X134329900Y-86329048D01*
X134365695Y-86269044D01*
X134371925Y-86263645D01*
X134413157Y-86230257D01*
X134532283Y-86083149D01*
X134618220Y-85914488D01*
X134667212Y-85731645D01*
X134673400Y-85653021D01*
X134673399Y-84526980D01*
X134667212Y-84448355D01*
X134618220Y-84265512D01*
X134574838Y-84180371D01*
X134532285Y-84096853D01*
X134496753Y-84052975D01*
X134413157Y-83949743D01*
X134371937Y-83916364D01*
X134332228Y-83858879D01*
X134329900Y-83789048D01*
X134365695Y-83729044D01*
X134371925Y-83723645D01*
X134413157Y-83690257D01*
X134532283Y-83543149D01*
X134618220Y-83374488D01*
X134667212Y-83191645D01*
X134673400Y-83113021D01*
X134673399Y-81986980D01*
X134667212Y-81908355D01*
X134618220Y-81725512D01*
X134574838Y-81640371D01*
X134532285Y-81556853D01*
X134496753Y-81512975D01*
X134413157Y-81409743D01*
X134371937Y-81376364D01*
X134332228Y-81318879D01*
X134329900Y-81249048D01*
X134365695Y-81189044D01*
X134371925Y-81183645D01*
X134413157Y-81150257D01*
X134532283Y-81003149D01*
X134618220Y-80834488D01*
X134667212Y-80651645D01*
X134673400Y-80573021D01*
X134673399Y-79446980D01*
X134667212Y-79368355D01*
X134618220Y-79185512D01*
X134574838Y-79100371D01*
X134532285Y-79016853D01*
X134496753Y-78972975D01*
X134413157Y-78869743D01*
X134371937Y-78836364D01*
X134332228Y-78778879D01*
X134329900Y-78709048D01*
X134365695Y-78649044D01*
X134371925Y-78643645D01*
X134413157Y-78610257D01*
X134532283Y-78463149D01*
X134618220Y-78294488D01*
X134667212Y-78111645D01*
X134673400Y-78033021D01*
X134673399Y-76906980D01*
X134667212Y-76828355D01*
X134618220Y-76645512D01*
X134574838Y-76560371D01*
X134532285Y-76476853D01*
X134496753Y-76432975D01*
X134413157Y-76329743D01*
X134371937Y-76296364D01*
X134332228Y-76238879D01*
X134329900Y-76169048D01*
X134365695Y-76109044D01*
X134371925Y-76103645D01*
X134413157Y-76070257D01*
X134532283Y-75923149D01*
X134618220Y-75754488D01*
X134667212Y-75571645D01*
X134673400Y-75493021D01*
X134673399Y-74366980D01*
X134667212Y-74288355D01*
X134618220Y-74105512D01*
X134574838Y-74020371D01*
X134532285Y-73936853D01*
X134496753Y-73892975D01*
X134413157Y-73789743D01*
X134371937Y-73756364D01*
X134332228Y-73698879D01*
X134329900Y-73629048D01*
X134365695Y-73569044D01*
X134371925Y-73563645D01*
X134413157Y-73530257D01*
X134532283Y-73383149D01*
X134618220Y-73214488D01*
X134667212Y-73031645D01*
X134673400Y-72953021D01*
X134673399Y-71826980D01*
X134667212Y-71748355D01*
X134618220Y-71565512D01*
X134574838Y-71480371D01*
X134532285Y-71396853D01*
X134499454Y-71356311D01*
X134413157Y-71249743D01*
X134371937Y-71216364D01*
X134332228Y-71158879D01*
X134329900Y-71089048D01*
X134365695Y-71029044D01*
X134371925Y-71023645D01*
X134413157Y-70990257D01*
X134532283Y-70843149D01*
X134618220Y-70674488D01*
X134667212Y-70491645D01*
X134673400Y-70413021D01*
X134673399Y-69286980D01*
X134667212Y-69208355D01*
X134618220Y-69025512D01*
X134574838Y-68940371D01*
X134532285Y-68856853D01*
X134499454Y-68816311D01*
X134413157Y-68709743D01*
X134371937Y-68676364D01*
X134332228Y-68618879D01*
X134329900Y-68549048D01*
X134365695Y-68489044D01*
X134371925Y-68483645D01*
X134413157Y-68450257D01*
X134532283Y-68303149D01*
X134618220Y-68134488D01*
X134667212Y-67951645D01*
X134673400Y-67873021D01*
X134673399Y-66746980D01*
X134667212Y-66668355D01*
X134618220Y-66485512D01*
X134574838Y-66400371D01*
X134532285Y-66316853D01*
X134499454Y-66276311D01*
X134413157Y-66169743D01*
X134326858Y-66099859D01*
X134266046Y-66050614D01*
X134140768Y-65986783D01*
X134097388Y-65964680D01*
X134030462Y-65946747D01*
X133914543Y-65915687D01*
X133835926Y-65909500D01*
X132204000Y-65909500D01*
X132136961Y-65889815D01*
X132091206Y-65837011D01*
X132080000Y-65785500D01*
X132080000Y-62354000D01*
X132099685Y-62286961D01*
X132152489Y-62241206D01*
X132204000Y-62230000D01*
X151006000Y-62230000D01*
X151073039Y-62249685D01*
G37*
%TD.AperFunction*%
%TD*%
M02*
