%TF.GenerationSoftware,KiCad,Pcbnew,7.0.11+dfsg-1build4*%
%TF.CreationDate,2024-08-08T20:50:29+02:00*%
%TF.ProjectId,BC01,42433031-2e6b-4696-9361-645f70636258,rev?*%
%TF.SameCoordinates,Original*%
%TF.FileFunction,Profile,NP*%
%FSLAX46Y46*%
G04 Gerber Fmt 4.6, Leading zero omitted, Abs format (unit mm)*
G04 Created by KiCad (PCBNEW 7.0.11+dfsg-1build4) date 2024-08-08 20:50:29*
%MOMM*%
%LPD*%
G01*
G04 APERTURE LIST*
%TA.AperFunction,Profile*%
%ADD10C,0.050000*%
%TD*%
%TA.AperFunction,Profile*%
%ADD11C,0.100000*%
%TD*%
G04 APERTURE END LIST*
D10*
X126492000Y-116840000D02*
X163830000Y-116840000D01*
X121920000Y-116840000D02*
X123952000Y-116840000D01*
X126492000Y-60960000D02*
X163830000Y-60960000D01*
X121920000Y-60960000D02*
X123952000Y-60960000D01*
X123952000Y-116332000D02*
X123952000Y-116840000D01*
X126492000Y-116332000D02*
X126492000Y-116840000D01*
X126492000Y-116332000D02*
G75*
G03*
X123952000Y-116332000I-1270000J0D01*
G01*
X126492000Y-61468000D02*
X126492000Y-60960000D01*
X123952000Y-61468000D02*
X123952000Y-60960000D01*
X123952000Y-61468000D02*
G75*
G03*
X126492000Y-61468000I1270000J0D01*
G01*
X120650000Y-115570000D02*
X121920000Y-116840000D01*
X120650000Y-114935000D02*
X120650000Y-115570000D01*
X120650000Y-62230000D02*
X121920000Y-60960000D01*
X120650000Y-62865000D02*
X120650000Y-62230000D01*
X180975000Y-78105000D02*
X180975000Y-99695000D01*
X163830000Y-116840000D02*
G75*
G03*
X180975000Y-99695000I0J17145000D01*
G01*
X180975000Y-78105000D02*
G75*
G03*
X163830000Y-60960000I-17145000J0D01*
G01*
X120650000Y-114935000D02*
X120650000Y-62865000D01*
D11*
X153670000Y-78740000D02*
X153670000Y-99060000D01*
X173990000Y-78740000D02*
X173990000Y-99060000D01*
X173990000Y-78740000D02*
G75*
G03*
X153670000Y-78740000I-10160000J0D01*
G01*
X153670000Y-99060000D02*
G75*
G03*
X173990000Y-99060000I10160000J0D01*
G01*
M02*
