%TF.GenerationSoftware,KiCad,Pcbnew,7.0.11+dfsg-1build4*%
%TF.CreationDate,2024-08-26T19:24:48+02:00*%
%TF.ProjectId,BC01,42433031-2e6b-4696-9361-645f70636258,rev?*%
%TF.SameCoordinates,Original*%
%TF.FileFunction,Legend,Top*%
%TF.FilePolarity,Positive*%
%FSLAX46Y46*%
G04 Gerber Fmt 4.6, Leading zero omitted, Abs format (unit mm)*
G04 Created by KiCad (PCBNEW 7.0.11+dfsg-1build4) date 2024-08-26 19:24:48*
%MOMM*%
%LPD*%
G01*
G04 APERTURE LIST*
G04 Aperture macros list*
%AMRoundRect*
0 Rectangle with rounded corners*
0 $1 Rounding radius*
0 $2 $3 $4 $5 $6 $7 $8 $9 X,Y pos of 4 corners*
0 Add a 4 corners polygon primitive as box body*
4,1,4,$2,$3,$4,$5,$6,$7,$8,$9,$2,$3,0*
0 Add four circle primitives for the rounded corners*
1,1,$1+$1,$2,$3*
1,1,$1+$1,$4,$5*
1,1,$1+$1,$6,$7*
1,1,$1+$1,$8,$9*
0 Add four rect primitives between the rounded corners*
20,1,$1+$1,$2,$3,$4,$5,0*
20,1,$1+$1,$4,$5,$6,$7,0*
20,1,$1+$1,$6,$7,$8,$9,0*
20,1,$1+$1,$8,$9,$2,$3,0*%
G04 Aperture macros list end*
%ADD10C,0.150000*%
%ADD11C,0.120000*%
%ADD12RoundRect,0.500000X-6.000000X-0.500000X6.000000X-0.500000X6.000000X0.500000X-6.000000X0.500000X0*%
%ADD13O,1.700000X1.700000*%
%ADD14R,1.700000X1.700000*%
G04 APERTURE END LIST*
D10*
X161718458Y-114375180D02*
X161532744Y-114279942D01*
X161532744Y-114279942D02*
X161470839Y-114184704D01*
X161470839Y-114184704D02*
X161408935Y-113994228D01*
X161408935Y-113994228D02*
X161408935Y-113708514D01*
X161408935Y-113708514D02*
X161470839Y-113518038D01*
X161470839Y-113518038D02*
X161532744Y-113422800D01*
X161532744Y-113422800D02*
X161656554Y-113327561D01*
X161656554Y-113327561D02*
X162151792Y-113327561D01*
X162151792Y-113327561D02*
X162151792Y-115327561D01*
X162151792Y-115327561D02*
X161718458Y-115327561D01*
X161718458Y-115327561D02*
X161594649Y-115232323D01*
X161594649Y-115232323D02*
X161532744Y-115137085D01*
X161532744Y-115137085D02*
X161470839Y-114946609D01*
X161470839Y-114946609D02*
X161470839Y-114756133D01*
X161470839Y-114756133D02*
X161532744Y-114565657D01*
X161532744Y-114565657D02*
X161594649Y-114470419D01*
X161594649Y-114470419D02*
X161718458Y-114375180D01*
X161718458Y-114375180D02*
X162151792Y-114375180D01*
X160108935Y-113518038D02*
X160170839Y-113422800D01*
X160170839Y-113422800D02*
X160356554Y-113327561D01*
X160356554Y-113327561D02*
X160480363Y-113327561D01*
X160480363Y-113327561D02*
X160666077Y-113422800D01*
X160666077Y-113422800D02*
X160789887Y-113613276D01*
X160789887Y-113613276D02*
X160851792Y-113803752D01*
X160851792Y-113803752D02*
X160913696Y-114184704D01*
X160913696Y-114184704D02*
X160913696Y-114470419D01*
X160913696Y-114470419D02*
X160851792Y-114851371D01*
X160851792Y-114851371D02*
X160789887Y-115041847D01*
X160789887Y-115041847D02*
X160666077Y-115232323D01*
X160666077Y-115232323D02*
X160480363Y-115327561D01*
X160480363Y-115327561D02*
X160356554Y-115327561D01*
X160356554Y-115327561D02*
X160170839Y-115232323D01*
X160170839Y-115232323D02*
X160108935Y-115137085D01*
X159304173Y-115327561D02*
X159180363Y-115327561D01*
X159180363Y-115327561D02*
X159056554Y-115232323D01*
X159056554Y-115232323D02*
X158994649Y-115137085D01*
X158994649Y-115137085D02*
X158932744Y-114946609D01*
X158932744Y-114946609D02*
X158870839Y-114565657D01*
X158870839Y-114565657D02*
X158870839Y-114089466D01*
X158870839Y-114089466D02*
X158932744Y-113708514D01*
X158932744Y-113708514D02*
X158994649Y-113518038D01*
X158994649Y-113518038D02*
X159056554Y-113422800D01*
X159056554Y-113422800D02*
X159180363Y-113327561D01*
X159180363Y-113327561D02*
X159304173Y-113327561D01*
X159304173Y-113327561D02*
X159427982Y-113422800D01*
X159427982Y-113422800D02*
X159489887Y-113518038D01*
X159489887Y-113518038D02*
X159551792Y-113708514D01*
X159551792Y-113708514D02*
X159613696Y-114089466D01*
X159613696Y-114089466D02*
X159613696Y-114565657D01*
X159613696Y-114565657D02*
X159551792Y-114946609D01*
X159551792Y-114946609D02*
X159489887Y-115137085D01*
X159489887Y-115137085D02*
X159427982Y-115232323D01*
X159427982Y-115232323D02*
X159304173Y-115327561D01*
X157632744Y-113327561D02*
X158375601Y-113327561D01*
X158004173Y-113327561D02*
X158004173Y-115327561D01*
X158004173Y-115327561D02*
X158127982Y-115041847D01*
X158127982Y-115041847D02*
X158251792Y-114851371D01*
X158251792Y-114851371D02*
X158375601Y-114756133D01*
X156085126Y-114089466D02*
X155094650Y-114089466D01*
X153485126Y-113327561D02*
X153485126Y-115327561D01*
X153485126Y-115327561D02*
X152742269Y-113327561D01*
X152742269Y-113327561D02*
X152742269Y-115327561D01*
X151566078Y-114660895D02*
X151566078Y-113327561D01*
X152123221Y-114660895D02*
X152123221Y-113613276D01*
X152123221Y-113613276D02*
X152061316Y-113422800D01*
X152061316Y-113422800D02*
X151937506Y-113327561D01*
X151937506Y-113327561D02*
X151751792Y-113327561D01*
X151751792Y-113327561D02*
X151627983Y-113422800D01*
X151627983Y-113422800D02*
X151566078Y-113518038D01*
X150761316Y-113327561D02*
X150885126Y-113422800D01*
X150885126Y-113422800D02*
X150947031Y-113613276D01*
X150947031Y-113613276D02*
X150947031Y-115327561D01*
X150080364Y-113327561D02*
X150204174Y-113422800D01*
X150204174Y-113422800D02*
X150266079Y-113613276D01*
X150266079Y-113613276D02*
X150266079Y-115327561D01*
X148594651Y-113327561D02*
X148594651Y-114660895D01*
X148594651Y-114470419D02*
X148532746Y-114565657D01*
X148532746Y-114565657D02*
X148408936Y-114660895D01*
X148408936Y-114660895D02*
X148223222Y-114660895D01*
X148223222Y-114660895D02*
X148099413Y-114565657D01*
X148099413Y-114565657D02*
X148037508Y-114375180D01*
X148037508Y-114375180D02*
X148037508Y-113327561D01*
X148037508Y-114375180D02*
X147975603Y-114565657D01*
X147975603Y-114565657D02*
X147851794Y-114660895D01*
X147851794Y-114660895D02*
X147666079Y-114660895D01*
X147666079Y-114660895D02*
X147542270Y-114565657D01*
X147542270Y-114565657D02*
X147480365Y-114375180D01*
X147480365Y-114375180D02*
X147480365Y-113327561D01*
X146675603Y-113327561D02*
X146799413Y-113422800D01*
X146799413Y-113422800D02*
X146861318Y-113518038D01*
X146861318Y-113518038D02*
X146923222Y-113708514D01*
X146923222Y-113708514D02*
X146923222Y-114279942D01*
X146923222Y-114279942D02*
X146861318Y-114470419D01*
X146861318Y-114470419D02*
X146799413Y-114565657D01*
X146799413Y-114565657D02*
X146675603Y-114660895D01*
X146675603Y-114660895D02*
X146489889Y-114660895D01*
X146489889Y-114660895D02*
X146366080Y-114565657D01*
X146366080Y-114565657D02*
X146304175Y-114470419D01*
X146304175Y-114470419D02*
X146242270Y-114279942D01*
X146242270Y-114279942D02*
X146242270Y-113708514D01*
X146242270Y-113708514D02*
X146304175Y-113518038D01*
X146304175Y-113518038D02*
X146366080Y-113422800D01*
X146366080Y-113422800D02*
X146489889Y-113327561D01*
X146489889Y-113327561D02*
X146675603Y-113327561D01*
X145127985Y-113327561D02*
X145127985Y-115327561D01*
X145127985Y-113422800D02*
X145251794Y-113327561D01*
X145251794Y-113327561D02*
X145499413Y-113327561D01*
X145499413Y-113327561D02*
X145623223Y-113422800D01*
X145623223Y-113422800D02*
X145685128Y-113518038D01*
X145685128Y-113518038D02*
X145747032Y-113708514D01*
X145747032Y-113708514D02*
X145747032Y-114279942D01*
X145747032Y-114279942D02*
X145685128Y-114470419D01*
X145685128Y-114470419D02*
X145623223Y-114565657D01*
X145623223Y-114565657D02*
X145499413Y-114660895D01*
X145499413Y-114660895D02*
X145251794Y-114660895D01*
X145251794Y-114660895D02*
X145127985Y-114565657D01*
X144013700Y-113422800D02*
X144137509Y-113327561D01*
X144137509Y-113327561D02*
X144385128Y-113327561D01*
X144385128Y-113327561D02*
X144508938Y-113422800D01*
X144508938Y-113422800D02*
X144570842Y-113613276D01*
X144570842Y-113613276D02*
X144570842Y-114375180D01*
X144570842Y-114375180D02*
X144508938Y-114565657D01*
X144508938Y-114565657D02*
X144385128Y-114660895D01*
X144385128Y-114660895D02*
X144137509Y-114660895D01*
X144137509Y-114660895D02*
X144013700Y-114565657D01*
X144013700Y-114565657D02*
X143951795Y-114375180D01*
X143951795Y-114375180D02*
X143951795Y-114184704D01*
X143951795Y-114184704D02*
X144570842Y-113994228D01*
X143394652Y-113327561D02*
X143394652Y-114660895D01*
X143394652Y-114470419D02*
X143332747Y-114565657D01*
X143332747Y-114565657D02*
X143208937Y-114660895D01*
X143208937Y-114660895D02*
X143023223Y-114660895D01*
X143023223Y-114660895D02*
X142899414Y-114565657D01*
X142899414Y-114565657D02*
X142837509Y-114375180D01*
X142837509Y-114375180D02*
X142837509Y-113327561D01*
X142837509Y-114375180D02*
X142775604Y-114565657D01*
X142775604Y-114565657D02*
X142651795Y-114660895D01*
X142651795Y-114660895D02*
X142466080Y-114660895D01*
X142466080Y-114660895D02*
X142342271Y-114565657D01*
X142342271Y-114565657D02*
X142280366Y-114375180D01*
X142280366Y-114375180D02*
X142280366Y-113327561D01*
X140113700Y-113422800D02*
X140237509Y-113327561D01*
X140237509Y-113327561D02*
X140485128Y-113327561D01*
X140485128Y-113327561D02*
X140608938Y-113422800D01*
X140608938Y-113422800D02*
X140670843Y-113518038D01*
X140670843Y-113518038D02*
X140732747Y-113708514D01*
X140732747Y-113708514D02*
X140732747Y-114279942D01*
X140732747Y-114279942D02*
X140670843Y-114470419D01*
X140670843Y-114470419D02*
X140608938Y-114565657D01*
X140608938Y-114565657D02*
X140485128Y-114660895D01*
X140485128Y-114660895D02*
X140237509Y-114660895D01*
X140237509Y-114660895D02*
X140113700Y-114565657D01*
X138999414Y-113327561D02*
X138999414Y-114375180D01*
X138999414Y-114375180D02*
X139061319Y-114565657D01*
X139061319Y-114565657D02*
X139185128Y-114660895D01*
X139185128Y-114660895D02*
X139432747Y-114660895D01*
X139432747Y-114660895D02*
X139556557Y-114565657D01*
X138999414Y-113422800D02*
X139123223Y-113327561D01*
X139123223Y-113327561D02*
X139432747Y-113327561D01*
X139432747Y-113327561D02*
X139556557Y-113422800D01*
X139556557Y-113422800D02*
X139618461Y-113613276D01*
X139618461Y-113613276D02*
X139618461Y-113803752D01*
X139618461Y-113803752D02*
X139556557Y-113994228D01*
X139556557Y-113994228D02*
X139432747Y-114089466D01*
X139432747Y-114089466D02*
X139123223Y-114089466D01*
X139123223Y-114089466D02*
X138999414Y-114184704D01*
X138380367Y-113327561D02*
X138380367Y-115327561D01*
X138380367Y-114565657D02*
X138256557Y-114660895D01*
X138256557Y-114660895D02*
X138008938Y-114660895D01*
X138008938Y-114660895D02*
X137885129Y-114565657D01*
X137885129Y-114565657D02*
X137823224Y-114470419D01*
X137823224Y-114470419D02*
X137761319Y-114279942D01*
X137761319Y-114279942D02*
X137761319Y-113708514D01*
X137761319Y-113708514D02*
X137823224Y-113518038D01*
X137823224Y-113518038D02*
X137885129Y-113422800D01*
X137885129Y-113422800D02*
X138008938Y-113327561D01*
X138008938Y-113327561D02*
X138256557Y-113327561D01*
X138256557Y-113327561D02*
X138380367Y-113422800D01*
X137018462Y-113327561D02*
X137142272Y-113422800D01*
X137142272Y-113422800D02*
X137204177Y-113613276D01*
X137204177Y-113613276D02*
X137204177Y-115327561D01*
X136027987Y-113422800D02*
X136151796Y-113327561D01*
X136151796Y-113327561D02*
X136399415Y-113327561D01*
X136399415Y-113327561D02*
X136523225Y-113422800D01*
X136523225Y-113422800D02*
X136585129Y-113613276D01*
X136585129Y-113613276D02*
X136585129Y-114375180D01*
X136585129Y-114375180D02*
X136523225Y-114565657D01*
X136523225Y-114565657D02*
X136399415Y-114660895D01*
X136399415Y-114660895D02*
X136151796Y-114660895D01*
X136151796Y-114660895D02*
X136027987Y-114565657D01*
X136027987Y-114565657D02*
X135966082Y-114375180D01*
X135966082Y-114375180D02*
X135966082Y-114184704D01*
X135966082Y-114184704D02*
X136585129Y-113994228D01*
X161718458Y-111155180D02*
X161532744Y-111059942D01*
X161532744Y-111059942D02*
X161470839Y-110964704D01*
X161470839Y-110964704D02*
X161408935Y-110774228D01*
X161408935Y-110774228D02*
X161408935Y-110488514D01*
X161408935Y-110488514D02*
X161470839Y-110298038D01*
X161470839Y-110298038D02*
X161532744Y-110202800D01*
X161532744Y-110202800D02*
X161656554Y-110107561D01*
X161656554Y-110107561D02*
X162151792Y-110107561D01*
X162151792Y-110107561D02*
X162151792Y-112107561D01*
X162151792Y-112107561D02*
X161718458Y-112107561D01*
X161718458Y-112107561D02*
X161594649Y-112012323D01*
X161594649Y-112012323D02*
X161532744Y-111917085D01*
X161532744Y-111917085D02*
X161470839Y-111726609D01*
X161470839Y-111726609D02*
X161470839Y-111536133D01*
X161470839Y-111536133D02*
X161532744Y-111345657D01*
X161532744Y-111345657D02*
X161594649Y-111250419D01*
X161594649Y-111250419D02*
X161718458Y-111155180D01*
X161718458Y-111155180D02*
X162151792Y-111155180D01*
X160975601Y-111440895D02*
X160666077Y-110107561D01*
X160356554Y-111440895D02*
X160666077Y-110107561D01*
X160666077Y-110107561D02*
X160789887Y-109631371D01*
X160789887Y-109631371D02*
X160851792Y-109536133D01*
X160851792Y-109536133D02*
X160975601Y-109440895D01*
X158932744Y-110678990D02*
X158313697Y-110678990D01*
X159056554Y-110107561D02*
X158623221Y-112107561D01*
X158623221Y-112107561D02*
X158189887Y-110107561D01*
X157756554Y-111440895D02*
X157756554Y-110107561D01*
X157756554Y-111250419D02*
X157694649Y-111345657D01*
X157694649Y-111345657D02*
X157570839Y-111440895D01*
X157570839Y-111440895D02*
X157385125Y-111440895D01*
X157385125Y-111440895D02*
X157261316Y-111345657D01*
X157261316Y-111345657D02*
X157199411Y-111155180D01*
X157199411Y-111155180D02*
X157199411Y-110107561D01*
X156023221Y-110107561D02*
X156023221Y-112107561D01*
X156023221Y-110202800D02*
X156147030Y-110107561D01*
X156147030Y-110107561D02*
X156394649Y-110107561D01*
X156394649Y-110107561D02*
X156518459Y-110202800D01*
X156518459Y-110202800D02*
X156580364Y-110298038D01*
X156580364Y-110298038D02*
X156642268Y-110488514D01*
X156642268Y-110488514D02*
X156642268Y-111059942D01*
X156642268Y-111059942D02*
X156580364Y-111250419D01*
X156580364Y-111250419D02*
X156518459Y-111345657D01*
X156518459Y-111345657D02*
X156394649Y-111440895D01*
X156394649Y-111440895D02*
X156147030Y-111440895D01*
X156147030Y-111440895D02*
X156023221Y-111345657D01*
X154908936Y-110202800D02*
X155032745Y-110107561D01*
X155032745Y-110107561D02*
X155280364Y-110107561D01*
X155280364Y-110107561D02*
X155404174Y-110202800D01*
X155404174Y-110202800D02*
X155466078Y-110393276D01*
X155466078Y-110393276D02*
X155466078Y-111155180D01*
X155466078Y-111155180D02*
X155404174Y-111345657D01*
X155404174Y-111345657D02*
X155280364Y-111440895D01*
X155280364Y-111440895D02*
X155032745Y-111440895D01*
X155032745Y-111440895D02*
X154908936Y-111345657D01*
X154908936Y-111345657D02*
X154847031Y-111155180D01*
X154847031Y-111155180D02*
X154847031Y-110964704D01*
X154847031Y-110964704D02*
X155466078Y-110774228D01*
X154289888Y-110107561D02*
X154289888Y-111440895D01*
X154289888Y-111059942D02*
X154227983Y-111250419D01*
X154227983Y-111250419D02*
X154166078Y-111345657D01*
X154166078Y-111345657D02*
X154042269Y-111440895D01*
X154042269Y-111440895D02*
X153918459Y-111440895D01*
X153547030Y-110202800D02*
X153423221Y-110107561D01*
X153423221Y-110107561D02*
X153175602Y-110107561D01*
X153175602Y-110107561D02*
X153051792Y-110202800D01*
X153051792Y-110202800D02*
X152989888Y-110393276D01*
X152989888Y-110393276D02*
X152989888Y-110488514D01*
X152989888Y-110488514D02*
X153051792Y-110678990D01*
X153051792Y-110678990D02*
X153175602Y-110774228D01*
X153175602Y-110774228D02*
X153361316Y-110774228D01*
X153361316Y-110774228D02*
X153485126Y-110869466D01*
X153485126Y-110869466D02*
X153547030Y-111059942D01*
X153547030Y-111059942D02*
X153547030Y-111155180D01*
X153547030Y-111155180D02*
X153485126Y-111345657D01*
X153485126Y-111345657D02*
X153361316Y-111440895D01*
X153361316Y-111440895D02*
X153175602Y-111440895D01*
X153175602Y-111440895D02*
X153051792Y-111345657D01*
X151504173Y-110202800D02*
X151318459Y-110107561D01*
X151318459Y-110107561D02*
X151008935Y-110107561D01*
X151008935Y-110107561D02*
X150885126Y-110202800D01*
X150885126Y-110202800D02*
X150823221Y-110298038D01*
X150823221Y-110298038D02*
X150761316Y-110488514D01*
X150761316Y-110488514D02*
X150761316Y-110678990D01*
X150761316Y-110678990D02*
X150823221Y-110869466D01*
X150823221Y-110869466D02*
X150885126Y-110964704D01*
X150885126Y-110964704D02*
X151008935Y-111059942D01*
X151008935Y-111059942D02*
X151256554Y-111155180D01*
X151256554Y-111155180D02*
X151380364Y-111250419D01*
X151380364Y-111250419D02*
X151442269Y-111345657D01*
X151442269Y-111345657D02*
X151504173Y-111536133D01*
X151504173Y-111536133D02*
X151504173Y-111726609D01*
X151504173Y-111726609D02*
X151442269Y-111917085D01*
X151442269Y-111917085D02*
X151380364Y-112012323D01*
X151380364Y-112012323D02*
X151256554Y-112107561D01*
X151256554Y-112107561D02*
X150947031Y-112107561D01*
X150947031Y-112107561D02*
X150761316Y-112012323D01*
X149647031Y-110107561D02*
X149647031Y-111155180D01*
X149647031Y-111155180D02*
X149708936Y-111345657D01*
X149708936Y-111345657D02*
X149832745Y-111440895D01*
X149832745Y-111440895D02*
X150080364Y-111440895D01*
X150080364Y-111440895D02*
X150204174Y-111345657D01*
X149647031Y-110202800D02*
X149770840Y-110107561D01*
X149770840Y-110107561D02*
X150080364Y-110107561D01*
X150080364Y-110107561D02*
X150204174Y-110202800D01*
X150204174Y-110202800D02*
X150266078Y-110393276D01*
X150266078Y-110393276D02*
X150266078Y-110583752D01*
X150266078Y-110583752D02*
X150204174Y-110774228D01*
X150204174Y-110774228D02*
X150080364Y-110869466D01*
X150080364Y-110869466D02*
X149770840Y-110869466D01*
X149770840Y-110869466D02*
X149647031Y-110964704D01*
X149027984Y-111440895D02*
X149027984Y-110107561D01*
X149027984Y-111250419D02*
X148966079Y-111345657D01*
X148966079Y-111345657D02*
X148842269Y-111440895D01*
X148842269Y-111440895D02*
X148656555Y-111440895D01*
X148656555Y-111440895D02*
X148532746Y-111345657D01*
X148532746Y-111345657D02*
X148470841Y-111155180D01*
X148470841Y-111155180D02*
X148470841Y-110107561D01*
X147294651Y-110107561D02*
X147294651Y-112107561D01*
X147294651Y-110202800D02*
X147418460Y-110107561D01*
X147418460Y-110107561D02*
X147666079Y-110107561D01*
X147666079Y-110107561D02*
X147789889Y-110202800D01*
X147789889Y-110202800D02*
X147851794Y-110298038D01*
X147851794Y-110298038D02*
X147913698Y-110488514D01*
X147913698Y-110488514D02*
X147913698Y-111059942D01*
X147913698Y-111059942D02*
X147851794Y-111250419D01*
X147851794Y-111250419D02*
X147789889Y-111345657D01*
X147789889Y-111345657D02*
X147666079Y-111440895D01*
X147666079Y-111440895D02*
X147418460Y-111440895D01*
X147418460Y-111440895D02*
X147294651Y-111345657D01*
X146118461Y-110107561D02*
X146118461Y-111155180D01*
X146118461Y-111155180D02*
X146180366Y-111345657D01*
X146180366Y-111345657D02*
X146304175Y-111440895D01*
X146304175Y-111440895D02*
X146551794Y-111440895D01*
X146551794Y-111440895D02*
X146675604Y-111345657D01*
X146118461Y-110202800D02*
X146242270Y-110107561D01*
X146242270Y-110107561D02*
X146551794Y-110107561D01*
X146551794Y-110107561D02*
X146675604Y-110202800D01*
X146675604Y-110202800D02*
X146737508Y-110393276D01*
X146737508Y-110393276D02*
X146737508Y-110583752D01*
X146737508Y-110583752D02*
X146675604Y-110774228D01*
X146675604Y-110774228D02*
X146551794Y-110869466D01*
X146551794Y-110869466D02*
X146242270Y-110869466D01*
X146242270Y-110869466D02*
X146118461Y-110964704D01*
X145499414Y-110107561D02*
X145499414Y-112107561D01*
X144942271Y-110107561D02*
X144942271Y-111155180D01*
X144942271Y-111155180D02*
X145004176Y-111345657D01*
X145004176Y-111345657D02*
X145127985Y-111440895D01*
X145127985Y-111440895D02*
X145313699Y-111440895D01*
X145313699Y-111440895D02*
X145437509Y-111345657D01*
X145437509Y-111345657D02*
X145499414Y-111250419D01*
X144137509Y-110107561D02*
X144261319Y-110202800D01*
X144261319Y-110202800D02*
X144323224Y-110393276D01*
X144323224Y-110393276D02*
X144323224Y-112107561D01*
X142713700Y-111917085D02*
X142651796Y-112012323D01*
X142651796Y-112012323D02*
X142527986Y-112107561D01*
X142527986Y-112107561D02*
X142218462Y-112107561D01*
X142218462Y-112107561D02*
X142094653Y-112012323D01*
X142094653Y-112012323D02*
X142032748Y-111917085D01*
X142032748Y-111917085D02*
X141970843Y-111726609D01*
X141970843Y-111726609D02*
X141970843Y-111536133D01*
X141970843Y-111536133D02*
X142032748Y-111250419D01*
X142032748Y-111250419D02*
X142775605Y-110107561D01*
X142775605Y-110107561D02*
X141970843Y-110107561D01*
X141166082Y-112107561D02*
X141042272Y-112107561D01*
X141042272Y-112107561D02*
X140918463Y-112012323D01*
X140918463Y-112012323D02*
X140856558Y-111917085D01*
X140856558Y-111917085D02*
X140794653Y-111726609D01*
X140794653Y-111726609D02*
X140732748Y-111345657D01*
X140732748Y-111345657D02*
X140732748Y-110869466D01*
X140732748Y-110869466D02*
X140794653Y-110488514D01*
X140794653Y-110488514D02*
X140856558Y-110298038D01*
X140856558Y-110298038D02*
X140918463Y-110202800D01*
X140918463Y-110202800D02*
X141042272Y-110107561D01*
X141042272Y-110107561D02*
X141166082Y-110107561D01*
X141166082Y-110107561D02*
X141289891Y-110202800D01*
X141289891Y-110202800D02*
X141351796Y-110298038D01*
X141351796Y-110298038D02*
X141413701Y-110488514D01*
X141413701Y-110488514D02*
X141475605Y-110869466D01*
X141475605Y-110869466D02*
X141475605Y-111345657D01*
X141475605Y-111345657D02*
X141413701Y-111726609D01*
X141413701Y-111726609D02*
X141351796Y-111917085D01*
X141351796Y-111917085D02*
X141289891Y-112012323D01*
X141289891Y-112012323D02*
X141166082Y-112107561D01*
X140237510Y-111917085D02*
X140175606Y-112012323D01*
X140175606Y-112012323D02*
X140051796Y-112107561D01*
X140051796Y-112107561D02*
X139742272Y-112107561D01*
X139742272Y-112107561D02*
X139618463Y-112012323D01*
X139618463Y-112012323D02*
X139556558Y-111917085D01*
X139556558Y-111917085D02*
X139494653Y-111726609D01*
X139494653Y-111726609D02*
X139494653Y-111536133D01*
X139494653Y-111536133D02*
X139556558Y-111250419D01*
X139556558Y-111250419D02*
X140299415Y-110107561D01*
X140299415Y-110107561D02*
X139494653Y-110107561D01*
X138380368Y-111440895D02*
X138380368Y-110107561D01*
X138689892Y-112202800D02*
X138999415Y-110774228D01*
X138999415Y-110774228D02*
X138194654Y-110774228D01*
D11*
%TO.C,J2*%
X143565000Y-72345000D02*
X143565000Y-105485000D01*
X140965000Y-74945000D02*
X140965000Y-72345000D01*
X140965000Y-72345000D02*
X143565000Y-72345000D01*
X138365000Y-105485000D02*
X143565000Y-105485000D01*
X138365000Y-74945000D02*
X140965000Y-74945000D01*
X138365000Y-74945000D02*
X138365000Y-105485000D01*
X138365000Y-73675000D02*
X138365000Y-72345000D01*
X138365000Y-72345000D02*
X139695000Y-72345000D01*
%TD*%
%LPC*%
D12*
%TO.C,J1*%
X127772900Y-113030000D03*
X127772900Y-110490000D03*
X127772900Y-107950000D03*
X127772900Y-105410000D03*
X127772900Y-102870000D03*
X127772900Y-100330000D03*
X127772900Y-97790000D03*
X127772900Y-95250000D03*
X127772900Y-92710000D03*
X127772900Y-90170000D03*
X127772900Y-87630000D03*
X127772900Y-85090000D03*
X127772900Y-82550000D03*
X127772900Y-80010000D03*
X127772900Y-77470000D03*
X127772900Y-74930000D03*
X127772900Y-72390000D03*
X127772900Y-69850000D03*
X127772900Y-67310000D03*
X127772900Y-64770000D03*
%TD*%
D13*
%TO.C,J2*%
X142235000Y-104155000D03*
X139695000Y-104155000D03*
X142235000Y-101615000D03*
X139695000Y-101615000D03*
X142235000Y-99075000D03*
X139695000Y-99075000D03*
X142235000Y-96535000D03*
X139695000Y-96535000D03*
X142235000Y-93995000D03*
X139695000Y-93995000D03*
X142235000Y-91455000D03*
X139695000Y-91455000D03*
X142235000Y-88915000D03*
X139695000Y-88915000D03*
X142235000Y-86375000D03*
X139695000Y-86375000D03*
X142235000Y-83835000D03*
X139695000Y-83835000D03*
X142235000Y-81295000D03*
X139695000Y-81295000D03*
X142235000Y-78755000D03*
X139695000Y-78755000D03*
X142235000Y-76215000D03*
X139695000Y-76215000D03*
X142235000Y-73675000D03*
D14*
X139695000Y-73675000D03*
%TD*%
%LPD*%
M02*
